<?xml version="1.0" standalone="no"?>
<!DOCTYPE svg PUBLIC "-//W3C//DTD SVG 1.1//EN" "http://www.w3.org/Graphics/SVG/1.1/DTD/svg11.dtd" >
<svg>
<metadata>
Created by FontForge 20090622 at Tue Jun 16 14:16:37 2015
 By deploy user
&#194;&#169; 1995, 1998, 2002 Adobe Systems Incorporated. All rights reserved. &#194;&#169; 1995, 1998, 2002 Heidelberger Druckmaschinen AG. All rights reserved.
</metadata>
<defs>
<font id="OptimaLTStd-Italic" horiz-adv-x="556" >
  <font-face 
    font-family="Optima LT Std"
    font-weight="400"
    font-style="italic"
    font-stretch="normal"
    units-per-em="1000"
    panose-1="2 11 5 2 5 5 8 9 3 4"
    ascent="733"
    descent="-267"
    x-height="470"
    cap-height="681"
    bbox="-151 -265 1017 923"
    underline-thickness="50"
    underline-position="-50"
    slope="-12"
    unicode-range="U+0020-U+FB02"
  />
<missing-glyph horiz-adv-x="588" 
d="M88 0v700h500v-700h-500zM338 395l170 255h-340zM368 350l170 -255v510zM168 50h340l-170 255zM138 605v-510l170 255z" />
    <glyph glyph-name="f_i" unicode="fi" horiz-adv-x="518" 
d="M489 470q-19 -67 -55.5 -231t-45.5 -243q-30 4 -46 4q-19 0 -39 -4q29 92 62.5 258.5t40.5 215.5q30 -4 42 -4q17 0 41 4zM434 628q0 20 14 34t34 14t34 -14t14 -34t-14 -34t-34 -14t-34 14t-14 34zM58 422l6 41q48 -4 72 -4q18 92 46 154q25 55 68.5 92.5t98.5 37.5
q21 0 41 -8q-14 -32 -20 -70l-9 -4q-36 17 -65 17q-81 0 -85 -109q-2 -69 -6 -110q39 0 87 4l-8 -41q-9 0 -39 2t-46 2l-69 -327q-12 -57 -17 -103q-22 4 -38 4q-18 0 -40 -4q54 203 95 430q-48 0 -72 -4z" />
    <glyph glyph-name="f_l" unicode="fl" horiz-adv-x="518" 
d="M545 744q-16 -56 -79.5 -345.5t-80.5 -402.5q-20 4 -41 4q-18 0 -40 -4q45 168 92 396.5t65 351.5q22 -4 38 -4q18 0 46 4zM58 422l6 41q48 -4 72 -4q18 92 46 154q25 55 68.5 92.5t98.5 37.5q21 0 41 -8q-14 -32 -20 -70l-9 -4q-36 17 -65 17q-81 0 -85 -109
q-2 -69 -6 -110q39 0 87 4l-8 -41q-9 0 -39 2t-46 2l-69 -327q-12 -57 -17 -103q-22 4 -38 4q-18 0 -40 -4q54 203 95 430q-48 0 -72 -4z" />
    <glyph glyph-name=".notdef" horiz-adv-x="588" 
d="M88 0v700h500v-700h-500zM338 395l170 255h-340zM368 350l170 -255v510zM168 50h340l-170 255zM138 605v-510l170 255z" />
    <glyph glyph-name=".null" horiz-adv-x="0" 
 />
    <glyph glyph-name="nonmarkingreturn" horiz-adv-x="333" 
 />
    <glyph glyph-name="space" unicode=" " horiz-adv-x="278" 
 />
    <glyph glyph-name="exclam" unicode="!" horiz-adv-x="333" 
d="M169 162h-21l62 439q3 21 5.5 32t8 25.5t16 21t25.5 6.5q21 0 30.5 -12t9.5 -28q0 -20 -12 -62zM84 39q0 21 15 36.5t37 15.5t37 -15t15 -37t-15.5 -37t-36.5 -15q-22 0 -37 15.5t-15 36.5z" />
    <glyph glyph-name="quotedbl" unicode="&#x22;" horiz-adv-x="500" 
d="M204 386h-40l53 280h53zM352 386h-39l52 280h54z" />
    <glyph glyph-name="numbersign" unicode="#" 
d="M160 0h-50l44 207h-106l10 45h105l35 162h-106l9 45h107l44 207h50l-44 -207h128l44 207h51l-44 -207h106l-10 -45h-106l-35 -162h106l-9 -45h-106l-44 -207h-51l45 207h-129zM214 252h128l35 162h-128z" />
    <glyph glyph-name="dollar" unicode="$" 
d="M374 631l-55 -261q36 -18 55 -30t44.5 -32.5t37 -46.5t11.5 -58q0 -73 -62.5 -138.5t-166.5 -81.5q-14 -55 -19 -106q-14 4 -23 4t-23 -4q11 30 27 106q-96 6 -162 52q24 32 34 66l6 1q32 -74 129 -84l62 292q-31 15 -48.5 25.5t-39.5 29.5t-32.5 44.5t-10.5 59.5
q0 43 18.5 82t67 72.5t120.5 42.5q8 42 13 73q12 -4 21 -4q11 0 23 4q-13 -41 -20 -72q87 -5 138 -38q-18 -32 -24 -65h-6q-40 64 -115 67zM284 388l52 243q-66 -6 -96.5 -47t-30.5 -85q0 -78 75 -111zM303 295l-59 -277q41 6 71.5 24.5t46 42.5t22.5 46.5t7 42.5
q0 75 -88 121z" />
    <glyph glyph-name="percent" unicode="%" horiz-adv-x="1000" 
d="M137 469q0 77 58.5 132t131.5 55q57 0 94 -38.5t37 -96.5q0 -70 -51.5 -131t-130.5 -61q-60 0 -99.5 37.5t-39.5 102.5zM392 550q0 84 -69 84q-39 0 -67.5 -34t-40.5 -76t-12 -80q0 -40 17 -66.5t54 -26.5q39 0 67.5 36.5t39.5 79.5t11 83zM577 131q0 77 58.5 132
t131.5 55q57 0 94 -38.5t37 -96.5q0 -70 -51.5 -131t-130.5 -61q-60 0 -99.5 37.5t-39.5 102.5zM832 212q0 84 -69 84q-39 0 -67.5 -34t-40.5 -76t-12 -80q0 -40 17 -66.5t54 -26.5q39 0 67.5 36.5t39.5 79.5t11 83zM758 685l-438 -723h-44l438 723h44z" />
    <glyph glyph-name="ampersand" unicode="&#x26;" horiz-adv-x="667" 
d="M487 -4l-51 78q-111 -92 -225 -92q-83 0 -122.5 46t-39.5 106q0 36 13.5 67.5t30 52t50 44t55 35t64.5 32.5q-40 76 -40 129q0 77 51.5 124.5t119.5 47.5q55 0 84 -29t29 -68q0 -107 -171 -193q72 -122 141 -227q69 59 136 165q13 -26 26 -40q-99 -111 -144 -148
q24 -39 92 -130q-23 4 -48 4q-17 0 -51 -4zM274 342h-1q-81 -41 -116 -82.5t-35 -98.5q0 -60 37.5 -97t94.5 -37q32 0 66.5 12.5t53.5 24.5t48 32q-108 169 -148 246zM324 398h2q27 16 43 27t40 33t36.5 49.5t12.5 59.5q0 33 -18.5 52.5t-51.5 19.5q-44 0 -73.5 -33
t-29.5 -85q0 -45 39 -123z" />
    <glyph glyph-name="quotesingle" unicode="'" horiz-adv-x="278" 
d="M171 386h-40l53 280h53z" />
    <glyph glyph-name="parenleft" unicode="(" horiz-adv-x="389" 
d="M377 687l16 -18q-97 -89 -143 -188q-83 -178 -83 -356q0 -67 14 -121.5t45 -123.5l-23 -14q-87 158 -87 316q0 153 72.5 287.5t188.5 217.5z" />
    <glyph glyph-name="parenright" unicode=")" horiz-adv-x="389" 
d="M30 -134l-16 18q97 89 143 188q83 178 83 356q0 67 -14 121.5t-45 123.5l23 14q87 -158 87 -316q0 -153 -72.5 -287.5t-188.5 -217.5z" />
    <glyph glyph-name="asterisk" unicode="*" horiz-adv-x="444" 
d="M259 538l15 146q25 -8 52 -8l-43 -144l134 65q4 -26 19 -49l-146 -38l121 -83q-22 -16 -35 -41l-102 104l-15 -148q-23 6 -53 8l43 144l-135 -67q-4 22 -18 49l146 42l-120 83q21 18 34 40z" />
    <glyph glyph-name="plus" unicode="+" horiz-adv-x="593" 
d="M271 0v218h-223v48h223v217h52v-217h223v-48h-223v-218h-52z" />
    <glyph glyph-name="comma" unicode="," horiz-adv-x="278" 
d="M-2 -163l-14 10l110 208q15 28 27 41t28 13q12 0 22 -9t10 -24q0 -21 -22 -45z" />
    <glyph glyph-name="hyphen" unicode="-" horiz-adv-x="296" 
d="M49 302h219l-13 -59h-219z" />
    <glyph glyph-name="period" unicode="." horiz-adv-x="278" 
d="M58 39q0 21 15 36.5t37 15.5t37 -15t15 -37t-15.5 -37t-36.5 -15q-22 0 -37 15.5t-15 36.5z" />
    <glyph glyph-name="slash" unicode="/" horiz-adv-x="389" 
d="M383 709h53l-368 -746h-53z" />
    <glyph glyph-name="zero" unicode="0" 
d="M53 210q0 52 9.5 109.5t32.5 120t57 112t87 81.5t118 32q94 0 136 -63.5t42 -162.5q0 -50 -8.5 -106.5t-30.5 -120t-55 -114t-86 -83.5t-119 -33q-94 0 -138.5 64.5t-44.5 163.5zM125 183q0 -32 5 -59.5t17 -54t35.5 -42t56.5 -15.5q102 0 161 149q25 63 44 152.5
t19 164.5q0 73 -29.5 115t-82.5 42q-78 0 -125 -76q-50 -81 -75.5 -194t-25.5 -182z" />
    <glyph glyph-name="one" unicode="1" 
d="M336 598l-109 -49l-26 26v6q57 17 122.5 47.5t101.5 52.5l11 -7q-42 -167 -107 -492q-25 -122 -34 -186q-24 4 -42 4q-19 0 -45 -4q26 92 59.5 241t51.5 241.5t22 115.5z" />
    <glyph glyph-name="two" unicode="2" 
d="M27 -4l1 21l149.5 140t123.5 126q54 65 83.5 118.5t29.5 116.5q0 52 -27 84t-78 32q-46 0 -80 -26.5t-50 -67.5h-4q-11 29 -25 43q58 82 174 82q76 0 125 -34.5t49 -106.5q0 -53 -29.5 -107.5t-104.5 -126.5l-75 -72l-100.5 -95.5t-59.5 -58.5l3 -7q188 0 307 7
q-14 -36 -14 -68q-152 4 -230 4q-64 0 -168 -4z" />
    <glyph glyph-name="three" unicode="3" 
d="M185 554l-17 45q64 66 159 66q73 0 115.5 -34t42.5 -91q0 -120 -160 -187v-4q60 -6 98 -37.5t38 -90.5q0 -89 -78 -163t-210 -74q-84 0 -149 33q11 18 21 57h3q58 -60 139 -60q83 0 137.5 61.5t54.5 141.5q0 57 -33 85t-77 28q-29 0 -62 -13l10 41q51 -2 90 14.5t60 44.5
t31 57t10 57q0 52 -28.5 78.5t-68.5 26.5q-34 0 -68.5 -20.5t-55.5 -61.5h-2z" />
    <glyph glyph-name="four" unicode="4" 
d="M410 243l100 2q-13 -26 -13 -60q-44 4 -98 4q-19 -90 -25 -128q-8 -50 -10 -65q-22 4 -40 4q-17 0 -41 -4q13 38 50 193q-72 2 -107 2q-111 0 -197 -2l1 17l85 94l237 257l102 107q16 -4 26 -4q6 0 24 4q-40 -148 -94 -421zM122 243h221l66 320l-6 2l-207 -224
q-31 -34 -77 -90z" />
    <glyph glyph-name="five" unicode="5" 
d="M164 323l-8 4q46 223 54 334q76 -4 185 -4q71 0 128 4q-14 -34 -18 -72q-198 7 -254 7l-51 -224q47 23 105 23q70 0 115.5 -41.5t45.5 -108.5q0 -44 -18.5 -88.5t-54 -83.5t-94 -63.5t-130.5 -24.5q-97 0 -140 35q15 28 21 56h4q46 -61 129 -61t141 65.5t58 150.5
q0 67 -38.5 97t-85.5 30q-51 0 -94 -35z" />
    <glyph glyph-name="six" unicode="6" 
d="M472 662l12 -30l-2 -4q-20 9 -48 9q-102 0 -177 -103q-34 -48 -61 -115t-33 -121h3q59 95 171 95q77 0 123.5 -44.5t46.5 -114.5q0 -42 -16 -85.5t-45 -81t-76 -61.5t-104 -24q-97 0 -144 61t-47 162q0 116 48.5 223t130 173t171.5 66q22 0 47 -5zM148 155
q0 -72 34.5 -108t85.5 -36q73 0 116.5 69.5t43.5 143.5q0 56 -32 94t-86 38q-67 0 -114.5 -57t-47.5 -144z" />
    <glyph glyph-name="seven" unicode="7" 
d="M476 586v6h-76q-105 0 -261 -6q13 31 14 75q19 0 93.5 -2t114.5 -2q106 0 208 4v-14q-87 -105 -246.5 -348.5t-190.5 -302.5q-18 4 -33 4q-12 0 -40 -4l280 399z" />
    <glyph glyph-name="eight" unicode="8" 
d="M490 224q0 -91 -69.5 -165t-183.5 -74q-80 0 -135.5 40.5t-55.5 124.5t52 143.5t139 75.5v5q-38 11 -64 41.5t-26 75.5q0 68 53 122t159 54q48 0 82 -14t49.5 -36t22 -42t6.5 -40q0 -64 -40.5 -105.5t-104.5 -58.5v-5q54 -14 85 -52.5t31 -89.5zM222 481
q0 -47 23.5 -73.5t68.5 -26.5q56 0 92 46.5t36 109.5q0 44 -23.5 72t-66.5 28q-52 0 -91 -44t-39 -112zM126 144q0 -54 29 -91.5t86 -37.5q78 0 122 67.5t44 145.5q0 62 -32 94t-82 32q-79 0 -123 -67.5t-44 -142.5z" />
    <glyph glyph-name="nine" unicode="9" 
d="M70 54l4 3q43 -43 102 -43q65 0 122.5 60.5t88.5 136.5t40 147l-2 2q-64 -98 -172 -98q-70 0 -117 43.5t-47 122.5q0 97 69 167.5t170 70.5q93 0 140.5 -58t47.5 -154q0 -117 -45 -225t-127 -177.5t-179 -69.5q-32 0 -86 14q1 28 -9 58zM170 434q0 -71 33.5 -102.5
t77.5 -31.5q66 0 112 60.5t46 141.5q0 62 -30 98t-80 36q-69 0 -114 -59.5t-45 -142.5z" />
    <glyph glyph-name="colon" unicode=":" horiz-adv-x="333" 
d="M86 39q0 21 15 36.5t37 15.5t37 -15t15 -37t-15.5 -37t-36.5 -15q-22 0 -37 15.5t-15 36.5zM164 403q0 21 15 36.5t37 15.5t37 -15t15 -37t-15.5 -37t-36.5 -15q-22 0 -37 15.5t-15 36.5z" />
    <glyph glyph-name="semicolon" unicode=";" horiz-adv-x="333" 
d="M17 -163l-13 9l110 208q15 29 27 42t28 13q12 0 22 -9t10 -24q0 -20 -22 -46zM164 403q0 21 15 36.5t37 15.5t37 -15t15 -37t-15.5 -37t-36.5 -15q-22 0 -37 15.5t-15 36.5z" />
    <glyph glyph-name="less" unicode="&#x3c;" horiz-adv-x="593" 
d="M48 214v54l497 200v-54l-435 -173l435 -172v-53z" />
    <glyph glyph-name="equal" unicode="=" horiz-adv-x="593" 
d="M48 309v48h497v-48h-497zM48 126v48h497v-48h-497z" />
    <glyph glyph-name="greater" unicode="&#x3e;" horiz-adv-x="593" 
d="M545 214l-497 -198v53l435 172l-435 173v54l497 -200v-54z" />
    <glyph glyph-name="question" unicode="?" horiz-adv-x="444" 
d="M269 192l-13 -29q-12 -2 -18 -2q-46 0 -78 28.5t-32 78.5q0 28 8.5 50.5t29.5 44t36.5 33.5l49.5 37q28 20 41 30.5t31 29t25.5 38.5t7.5 45q0 42 -27.5 61.5t-56.5 19.5q-52 0 -93 -43l-5 3q8 34 8 50q48 20 90 20q70 0 105.5 -40t35.5 -93q0 -89 -94 -158
q-81 -59 -103 -79q-41 -34 -41 -72q0 -27 17.5 -42t44.5 -15q14 0 28 6zM118 39q0 21 15 36.5t37 15.5t37 -15t15 -37t-15.5 -37t-36.5 -15q-22 0 -37 15.5t-15 36.5z" />
    <glyph glyph-name="at" unicode="@" horiz-adv-x="771" 
d="M698 107l19 -25q-65 -47 -133.5 -74t-161.5 -27q-90 0 -163 29.5t-118.5 79t-70 110.5t-24.5 126q0 157 112 263t280 106q143 0 233.5 -80t90.5 -205q0 -104 -59 -178t-138 -74q-31 0 -52 18t-21 49q0 11 6 35q-51 -102 -142 -102q-57 0 -93 39.5t-36 105.5q0 52 23 104
t68.5 89t100.5 37q46 0 78 -24t40 -68l23 79h49l-56 -185q-22 -74 -22 -101q0 -22 14 -32t32 -10q58 0 104.5 66t46.5 152q0 109 -79.5 180t-210.5 71q-108 0 -191 -48.5t-125 -124t-42 -162.5q0 -126 91.5 -218.5t251.5 -92.5q62 0 118.5 16.5t87 33t69.5 42.5zM513 404
q0 49 -25.5 72t-58.5 23q-61 0 -103 -65.5t-42 -132.5q0 -49 23.5 -79t62.5 -30q45 0 79.5 41.5t49 88t14.5 82.5z" />
    <glyph glyph-name="A" unicode="A" horiz-adv-x="667" 
d="M436 692h19l76 -372t72 -324q-26 4 -46 4q-19 0 -45 -4q-11 112 -45 270q-60 3 -133 3q-20 0 -42 -0.5t-48.5 -1.5t-41.5 -1q-29 -43 -81.5 -133t-75.5 -137q-18 4 -32 4q-8 0 -38 -4l341 512l57 86.5t63 97.5zM459 305l-55 265h-3l-174 -265q57 -3 116 -3q57 0 116 3z
" />
    <glyph glyph-name="B" unicode="B" horiz-adv-x="611" 
d="M390 367l-2 -7q79 -7 114.5 -47.5t35.5 -87.5q0 -56 -34.5 -109.5t-94.5 -83.5q-72 -36 -180 -36q-10 0 -63.5 2t-62.5 2q-19 0 -45 -4q37 142 80.5 346t64.5 339q5 0 15.5 -1.5t20 -2t17.5 -0.5q18 0 62 2t68 2q80 0 123 -23q62 -34 62 -103q0 -70 -57 -123t-124 -65z
M490 545q0 53 -32.5 78t-87.5 25q-51 0 -91 -4q-43 -175 -61 -265q23 -3 52 -3q90 0 140 30q39 24 59.5 62t20.5 77zM455 224q0 51 -33.5 80.5t-86.5 36.5q-28 4 -69 4q-39 0 -56 -1q-41 -196 -60 -308q25 -5 64 -5q78 0 128 21q47 20 80 69t33 103z" />
    <glyph glyph-name="C" unicode="C" horiz-adv-x="667" 
d="M598 87l4 -5q-11 -26 -16 -53q-95 -46 -197 -46q-65 0 -121.5 17.5t-102.5 53t-72.5 95t-26.5 136.5q0 173 117.5 290t314.5 117q116 0 191 -39q-20 -38 -29 -67q-71 71 -180 71q-101 0 -177 -55.5t-112.5 -140.5t-36.5 -185q0 -117 58 -179q69 -75 183 -75q104 0 203 65
z" />
    <glyph glyph-name="D" unicode="D" horiz-adv-x="778" 
d="M756 407q0 -60 -18.5 -119.5t-67 -123t-121.5 -106.5q-60 -35 -121.5 -48.5t-155.5 -13.5q-75 0 -143 4q-48 0 -70 -4q38 144 81.5 348t64.5 337q2 0 23.5 -2t35.5 -2q24 0 79 2t84 2q145 0 210 -37q55 -31 87 -94.5t32 -142.5zM670 407q0 63 -21.5 116t-59.5 80
q-56 41 -190 41q-57 0 -116 -3q-74 -296 -128 -603q49 -5 117 -5q162 0 249 68q69 53 109 138t40 168z" />
    <glyph glyph-name="E" unicode="E" horiz-adv-x="500" 
d="M301 339h-93q-34 -161 -59 -301q172 0 268 12q-7 -27 -6 -54q-136 4 -204 4q-42 0 -154 -4q37 140 80 344t66 341q128 -4 176 -4q76 0 138 4q-10 -29 -9 -55q-68 12 -228 12q-7 -27 -60 -260h119q47 0 116 6q-10 -29 -9 -51q-56 6 -141 6z" />
    <glyph glyph-name="F" unicode="F" horiz-adv-x="500" 
d="M302 339h-92q-39 -175 -67 -343q-24 4 -43 4q-20 0 -46 -4q38 144 81.5 348t64.5 337q136 -4 178 -4q80 0 136 4q-10 -33 -9 -56q-68 12 -227 12q-30 -118 -60 -259h118q47 0 116 6q-9 -26 -9 -51q-56 6 -141 6z" />
    <glyph glyph-name="G" unicode="G" horiz-adv-x="778" 
d="M748 652l-34 -67q-86 73 -202 73q-108 0 -190.5 -53.5t-123.5 -138t-41 -184.5q0 -123 68.5 -194t200.5 -71q88 0 156 26q26 93 43 212q20 -4 41 -4q18 0 38 4q-37 -135 -49 -232q-117 -38 -238 -38q-184 0 -274 98q-71 78 -71 207q0 81 30 153t86.5 127.5t144 88
t195.5 32.5t220 -39z" />
    <glyph glyph-name="H" unicode="H" horiz-adv-x="796" 
d="M637 384q41 201 56 297q24 -4 43 -4q20 0 46 4q-94 -364 -146 -685q-24 4 -44 4q-19 0 -45 -4q37 139 81 348q-67 2 -217 2q-132 0 -198 -2q-49 -240 -66 -348q-26 4 -44 4q-21 0 -45 -4q38 146 81.5 352.5t63.5 332.5q24 -4 44 -4q21 0 45 4q-26 -101 -70 -297
q49 -2 205 -2q39 0 87.5 0.5t76 1t46.5 0.5z" />
    <glyph glyph-name="I" unicode="I" horiz-adv-x="278" 
d="M43 -4q37 140 80 344t66 341q24 -4 43 -4q20 0 46 4q-90 -342 -146 -685q-24 4 -44 4q-19 0 -45 -4z" />
    <glyph glyph-name="J" unicode="J" horiz-adv-x="278" 
d="M-46 -142l-5 26q13 3 22 7.5t24.5 17t30.5 40t29 69.5q28 83 75 303.5t70 359.5q24 -4 43 -4q20 0 46 4q-29 -110 -103 -452q-42 -195 -68 -246q-22 -44 -69 -79.5t-95 -45.5z" />
    <glyph glyph-name="K" unicode="K" horiz-adv-x="611" 
d="M639 681v-6l-179 -157q-75 -64 -163 -149q47 -75 149 -215.5l114 -157.5q-32 4 -54 4t-50 -4q-98 170 -202 307q-29 39 -37 39t-12 -20q-45 -223 -62 -326q-24 4 -42 4q-17 0 -43 -4q38 144 81.5 348t64.5 337q22 -4 41 -4t43 4q-47 -185 -72 -307q-1 -5 -1 -11
q0 -3 4 -3q14 0 161.5 138t181.5 183q22 -4 38 -4q17 0 39 4z" />
    <glyph glyph-name="L" unicode="L" horiz-adv-x="444" 
d="M409 54q-8 -27 -8 -58q-60 4 -174 4q-69 0 -177 -4q37 140 80 344t66 341q24 -4 43 -4q20 0 46 4q-73 -276 -139 -642q176 2 263 15z" />
    <glyph glyph-name="M" unicode="M" horiz-adv-x="889" 
d="M395 -14h-12q-9 46 -70.5 262t-92.5 312q-5 -17 -26.5 -113t-48 -236.5t-31.5 -214.5q-18 4 -33 4q-6 0 -19.5 -2t-16.5 -2q28 92 79.5 320t76.5 365q20 -4 35 -4q16 0 34 4q54 -222 124 -461q27 -91 32 -106q36 47 184.5 265t200.5 302q20 -4 35 -4t37 4
q-17 -56 -72 -303t-70 -382q-24 4 -43 4t-47 -4q20 66 51 203.5t52 239.5t23 114q-39 -53 -193 -279t-189 -288z" />
    <glyph glyph-name="N" unicode="N" horiz-adv-x="778" 
d="M208 690h12q42 -75 192.5 -295.5t189.5 -265.5q17 62 53.5 251t49.5 301q18 -4 35 -4q10 0 30 4q-28 -96 -85.5 -361t-65.5 -335h-14q-22 40 -186 278t-196 279q-25 -102 -62.5 -292.5t-42.5 -253.5q-20 4 -34 4q-15 0 -35 -4q30 91 86.5 346t72.5 348z" />
    <glyph glyph-name="O" unicode="O" horiz-adv-x="833" 
d="M61 268q0 127 59 225.5t157.5 150t217.5 51.5q146 0 232 -78.5t86 -211.5q0 -76 -29.5 -150.5t-82.5 -136t-137 -99.5t-183 -38q-147 0 -234 73q-86 71 -86 214zM147 256q0 -123 66 -183t168 -60q68 0 126.5 25.5t98 67t67.5 94.5t41 106.5t13 103.5q0 125 -69 189
t-173 64q-100 0 -179 -59t-119 -151.5t-40 -196.5z" />
    <glyph glyph-name="P" unicode="P" 
d="M569 544q0 -55 -30.5 -109t-88.5 -87q-62 -35 -197 -35q-25 0 -53 2q-42 -207 -61 -319q-24 4 -43 4q-21 0 -45 -4q38 146 81 349.5t64 335.5q25 -4 58 -4q10 0 66 2t65 2q80 0 124 -26q60 -35 60 -111zM488 539q0 29 -10.5 50.5t-24 32t-36 16.5t-37.5 7t-36 1
q-31 0 -69 -5q-28 -110 -67 -292q26 -4 56 -4q93 0 147 39q38 28 57.5 71.5t19.5 83.5z" />
    <glyph glyph-name="Q" unicode="Q" horiz-adv-x="833" 
d="M795 -94l-38 -64q-41 20 -200 75q-32 11 -119 38.5t-92 27.5q-44 0 -102.5 18.5t-96.5 52.5q-86 76 -86 216q0 181 122.5 303t311.5 122q151 0 234.5 -81t83.5 -205q0 -94 -43.5 -187t-123.5 -152q-71 -52 -155 -76q-13 -4 -13 -10t9 -8l15 -3q15 -3 92.5 -20.5
t90.5 -19.5q26 -5 110 -27zM147 256q0 -123 66 -183t168 -60q68 0 126.5 25.5t98 67t67.5 94.5t41 106.5t13 103.5q0 125 -69 189t-173 64q-100 0 -179 -59t-119 -151.5t-40 -196.5z" />
    <glyph glyph-name="R" unicode="R" horiz-adv-x="611" 
d="M585 1v-5q-18 4 -53 4q-15 0 -49 -4q-55 92 -123 192.5t-106 144.5q-5 0 -14.5 0.5t-17 1t-14.5 1.5q-44 -208 -65 -340q-22 4 -41 4t-43 -4q93 360 145 685q28 -4 63 -4q57 0 133 4q77 0 115 -19q36 -18 54.5 -48t18.5 -63q0 -47 -27 -92.5t-75 -75.5q-50 -31 -138 -45
q43 -69 125.5 -187t111.5 -150zM215 367q24 -5 59 -5q101 0 155 37q39 27 58 65.5t19 77.5q0 36 -14.5 58.5t-41.5 31t-44.5 10.5t-45.5 2q-30 0 -82 -5q-21 -80 -63 -272z" />
    <glyph glyph-name="S" unicode="S" horiz-adv-x="500" 
d="M465 584h-7q-12 33 -42 52t-70 19q-62 0 -103 -42.5t-41 -100.5q0 -26 7 -45t25 -36t32.5 -26.5t45.5 -27.5t45.5 -28t34.5 -29t28 -43.5t8 -56.5q0 -88 -75 -163t-199 -75q-85 0 -143 37q22 42 33 77h7q20 -38 61 -55.5t79 -17.5q73 0 117 52t44 111q0 26 -7 45.5
t-25.5 37t-30.5 26t-42 27.5q-31 19 -45.5 30t-35.5 31t-29.5 45t-8.5 57q0 87 68.5 146t174.5 59q68 0 128 -30q-20 -33 -34 -76z" />
    <glyph glyph-name="T" unicode="T" 
d="M405 637q-83 -329 -134 -641q-24 4 -43 4q-20 0 -46 -4q38 145 78 334t60 307q-102 0 -223 -9q9 26 11 53q72 -4 252 -4q157 0 244 4q-7 -21 -11 -53q-106 9 -188 9z" />
    <glyph glyph-name="U" unicode="U" horiz-adv-x="778" 
d="M100 166q0 17 6 52.5t13 65.5l16 69l11 48q34 155 52 280q26 -4 47 -4q18 0 42 4q-35 -125 -87 -364q-22 -101 -22 -144q0 -72 57 -110.5t129 -38.5q74 0 138 38.5t93 108.5q53 131 112 510q18 -4 35 -4q13 0 33 4q-17 -58 -32 -121.5l-34 -146l-28 -121.5
q-20 -82 -40.5 -130t-61.5 -89q-93 -93 -239 -93q-94 0 -167 48t-73 138z" />
    <glyph glyph-name="V" unicode="V" horiz-adv-x="611" 
d="M286 94h5l28 46t31 54q140 246 177 318q71 140 83 169q18 -4 34 -4t36 4q-359 -605 -397 -685q-16 4 -28 4q-13 0 -29 -4q-7 44 -80 453q-29 162 -44 232q26 -4 44 -4q17 0 41 4l26 -186q5 -38 35 -208q6 -36 19.5 -100t18.5 -93z" />
    <glyph glyph-name="W" unicode="W" horiz-adv-x="944" 
d="M241 113h6q25 41 145.5 273t148.5 295q14 -4 25 -4t25 4q3 -57 25 -256t41 -316h7q33 53 132.5 250.5t150.5 321.5q18 -4 33 -4t37 4q-47 -76 -164 -298l-200 -387q-12 4 -28 4q-8 0 -28 -4q-3 51 -32.5 282t-34.5 264h-9q-43 -75 -117 -217l-116 -216q-18 -36 -53 -113
q-14 4 -26 4q-14 0 -30 -4q-7 101 -34.5 347.5t-42.5 337.5q22 -4 40 -4q16 0 44 4q4 -99 21.5 -276t33.5 -292z" />
    <glyph glyph-name="X" unicode="X" 
d="M335 356l76.5 -183.5t76.5 -176.5q-30 4 -49 4q-20 0 -44 -4q-78 219 -112 301q-26 -32 -101.5 -137.5t-109.5 -163.5q-20 4 -34 4q-16 0 -38 -4l202 260l65 83l-143 342q28 -4 46 -4q21 0 43 4q20 -58 36 -100l70 -184q86 108 210 284q14 -4 29 -4q17 0 41 4l-196 -240
q-53 -64 -68 -85z" />
    <glyph glyph-name="Y" unicode="Y" 
d="M302 332h4q9 11 49.5 65.5l99 139.5t93.5 144q16 -4 31 -4q14 0 37 4l-145.5 -194t-141.5 -189q-38 -181 -57 -302q-24 4 -42 4q-19 0 -43 -4q30 111 65 271q-7 21 -42 107q-61 154 -130 307q30 -4 51 -4q16 0 42 4q29 -91 90 -250z" />
    <glyph glyph-name="Z" unicode="Z" horiz-adv-x="611" 
d="M7 -4v15q49 52 255.5 310.5t242.5 310.5l-4 6q-206 0 -371 -11q8 23 12 54q152 -4 228 -4q166 0 253 4l-2 -21q-21 -24 -229 -282l-265 -333l6 -6q38 0 112 2q212 6 293 14q-9 -26 -9 -59q-83 4 -274 4q-92 0 -248 -4z" />
    <glyph glyph-name="bracketleft" unicode="[" horiz-adv-x="278" 
d="M248 646q-20 -61 -77.5 -333t-76.5 -398q28 -1 53 -1q3 0 39 3q-6 -18 -6 -34q-62 5 -75 5q-40 0 -88 -5q28 104 87.5 378.5t77.5 417.5q45 -5 82 -5q32 0 72 5q-6 -17 -6 -34q-16 3 -36 3q-30 0 -46 -2z" />
    <glyph glyph-name="backslash" unicode="\" horiz-adv-x="389" 
d="M193 709l51 -746h-48l-51 746h48z" />
    <glyph glyph-name="bracketright" unicode="]" horiz-adv-x="278" 
d="M49 -83q20 61 77.5 333t76.5 398q-28 1 -53 1q-3 0 -39 -3q6 18 6 34q62 -5 75 -5q40 0 88 5q-28 -104 -87.5 -378.5t-77.5 -417.5q-45 5 -82 5q-32 0 -72 -5q6 17 6 34q17 -3 36 -3q30 0 46 2z" />
    <glyph glyph-name="asciicircum" unicode="^" horiz-adv-x="593" 
d="M110 251l168 415h53l167 -415h-57l-138 352l-135 -352h-58z" />
    <glyph glyph-name="underscore" unicode="_" horiz-adv-x="500" 
d="M0 -125v50h500v-50h-500z" />
    <glyph glyph-name="grave" unicode="`" horiz-adv-x="241" 
d="M253 538h-28l-123 95q-33 25 -33 43q0 14 9 23t24 9q13 0 21.5 -7.5t27.5 -31.5z" />
    <glyph glyph-name="a" unicode="a" horiz-adv-x="500" 
d="M113 372l14 54q78 53 162 53q61 0 99.5 -31t38.5 -80q0 -27 -12 -78l-29 -122q-14 -59 -14 -89q0 -19 10 -32t29 -13q14 0 27 9l5 -21q-38 -26 -74 -26q-61 0 -66 67q-74 -78 -156 -78q-48 0 -85.5 29.5t-37.5 79.5q0 30 10.5 55t33 42t40.5 28.5t50.5 20l44 11.5t38.5 8
q73 14 80 17q32 14 32 74q0 42 -28.5 65t-71.5 23q-65 0 -128 -66h-12zM97 106q0 -35 23 -55.5t55 -20.5q77 0 131 79q15 85 30 139q-15 -3 -45 -8.5t-45 -9.5q-29 -7 -51.5 -15t-47 -22t-37.5 -36t-13 -51z" />
    <glyph glyph-name="b" unicode="b" horiz-adv-x="574" 
d="M47 -7l-20 1q29 96 89.5 385.5t71.5 364.5q24 -4 40 -4q17 0 41 4q-52 -195 -87 -361l3 -1q71 91 180 91q70 0 121 -44t51 -137q0 -118 -76.5 -214.5t-197.5 -96.5q-52 0 -85.5 16.5t-63.5 51.5q-24 -17 -67 -56zM457 292q0 42 -13 71.5t-34.5 42.5t-40 18.5t-37.5 5.5
q-53 0 -91.5 -29.5t-57.5 -73.5q-49 -109 -49 -207q0 -52 35.5 -79t81.5 -27q54 0 96 31t64.5 77t34 90.5t11.5 79.5z" />
    <glyph glyph-name="c" unicode="c" horiz-adv-x="500" 
d="M427 63l-14 -42q-72 -35 -148 -35q-98 0 -160.5 52.5t-62.5 154.5q0 50 17 98.5t51 91.5t93.5 69.5t134.5 26.5q77 0 152 -30q-15 -31 -25 -72h-6q-18 33 -52.5 51.5t-74.5 18.5q-91 0 -150.5 -77t-59.5 -177q0 -51 16 -87.5t42 -53.5t50.5 -24t49.5 -7q62 0 142 44z" />
    <glyph glyph-name="d" unicode="d" horiz-adv-x="574" 
d="M378 -4l22 89q-24 -30 -40 -47t-54.5 -36t-83.5 -19q-86 0 -133 56t-47 139q0 67 27.5 133.5t89 116t144.5 49.5q38 0 66 -10t45 -28.5t24.5 -30.5t15.5 -30h4q66 345 69 366q22 -4 40 -4q17 0 39 4q-50 -202 -122 -558q-21 -103 -34 -190q-18 4 -34 4t-38 -4zM122 172
q0 -72 31.5 -111t89.5 -39q43 0 78 21.5t56 53t35 71.5t19.5 74t5.5 63q0 19 -4 38.5t-15.5 43.5t-38 39t-64.5 15q-55 0 -95.5 -30.5t-60 -76.5t-28.5 -87t-9 -75z" />
    <glyph glyph-name="e" unicode="e" horiz-adv-x="500" 
d="M408 76l-13 -45q-74 -44 -163 -44q-35 0 -68 10.5t-63.5 32.5t-49 64t-18.5 99q0 120 72 202.5t185 82.5q79 0 129 -39.5t50 -124.5q0 -34 -11 -81q-93 5 -221 5q-59 0 -121 -2q-5 -32 -5 -58q0 -46 14 -78.5t38 -48t46.5 -22t46.5 -6.5q77 0 149 53h3zM290 449
q-22 0 -45 -8t-47 -26t-44 -54t-31 -85q55 -4 136 -4q96 0 133 4q6 24 6 54q0 62 -31.5 90.5t-76.5 28.5z" />
    <glyph glyph-name="f" unicode="f" horiz-adv-x="278" 
d="M58 422l6 41q48 -4 72 -4q18 92 46 154q25 55 68.5 92.5t98.5 37.5q21 0 41 -8q-14 -32 -20 -70l-9 -4q-36 17 -65 17q-81 0 -85 -109q-2 -69 -6 -110q39 0 87 4l-8 -41q-9 0 -39 2t-46 2l-69 -327q-12 -57 -17 -103q-22 4 -38 4q-18 0 -40 -4q54 203 95 430
q-48 0 -72 -4z" />
    <glyph glyph-name="g" unicode="g" horiz-adv-x="500" 
d="M137 171v7q-72 32 -72 112q0 76 58.5 132.5t160.5 56.5q32 0 76 -12q18 -5 51 -5q11 0 29 0.5t39.5 2t30.5 1.5q0 -3 -1 -10t-1 -11t1 -11t1 -10q-50 3 -95 5q28 -36 28 -82t-24.5 -91.5t-71.5 -71.5q-51 -28 -135 -28q-28 0 -58 2q-41 -26 -41 -55q0 -19 13.5 -28.5
t26 -11t34.5 -1.5q95 -1 127.5 -4.5t58.5 -18.5q44 -26 44 -87q0 -32 -14 -67t-42.5 -70t-81 -57.5t-120.5 -22.5q-83 0 -126 35q-46 37 -46 95q0 34 18.5 65t47.5 50q22 14 52 25l1 7q-55 15 -55 58q0 22 8 39.5t24.5 30t26.5 18t27 13.5zM142 285q0 -52 27.5 -76t64.5 -24
q65 0 99 56t34 114q0 44 -24 69.5t-64 25.5q-36 0 -64 -17.5t-43 -44t-22.5 -53t-7.5 -50.5zM47 -130q0 -53 35 -79t88 -26q84 0 131.5 48t47.5 108q0 22 -9.5 38t-22.5 24t-33.5 12.5t-35 5.5t-35.5 1q-72 0 -110 -25q-56 -37 -56 -107z" />
    <glyph glyph-name="h" unicode="h" 
d="M182 396l4 -2q69 83 170 83q69 0 104 -37.5t35 -79.5q0 -20 -31 -160q-28 -139 -32 -163q-4 -23 -5 -41q-22 4 -40 4q-19 0 -43 -4q14 46 44 175t30 169q0 38 -25 64.5t-73 26.5q-16 0 -33 -4t-42 -16t-46.5 -41.5t-33.5 -73.5q-35 -135 -57 -300q-22 4 -38 4
q-18 0 -44 -4q19 63 77 332.5t78 415.5q24 -4 40 -4q18 0 42 4q-22 -83 -42 -173z" />
    <glyph glyph-name="i" unicode="i" horiz-adv-x="241" 
d="M212 470q-19 -67 -55.5 -231t-45.5 -243q-30 4 -46 4q-19 0 -39 -4q29 92 62.5 258.5t40.5 215.5q30 -4 42 -4q17 0 41 4zM157 628q0 20 14 34t34 14t34 -14t14 -34t-14 -34t-34 -14t-34 14t-14 34z" />
    <glyph glyph-name="j" unicode="j" horiz-adv-x="241" 
d="M-97 -265l-10 20q26 12 40.5 20t29.5 24t22 29.5t18.5 48t19 66.5t21.5 97q51 227 62 288l11 63.5t15 78.5q20 -4 42 -4q17 0 37 4q-22 -80 -73 -315q-58 -265 -67 -290q-2 -6 -6 -14q-38 -83 -162 -116zM156 628q0 20 14 34t34 14t34 -14t14 -34t-14 -34t-34 -14t-34 14
t-14 34z" />
    <glyph glyph-name="k" unicode="k" horiz-adv-x="500" 
d="M258 277v-7q14 -25 76.5 -114.5t117.5 -159.5q-32 4 -54 4q-19 0 -45 -4q-66 111 -131 200l-17 24q-21 28 -37 28q-11 0 -14 -20l-4 -21q-31 -155 -39 -211q-24 4 -41 4q-18 0 -40 -4q74 289 145 676q6 33 11 72q28 -4 41 -4q17 0 41 4l-47 -209l-46 -213l-8 -39
q-4 -15 10 -15q8 0 20 7l17 12q49 34 217 183q18 -4 35 -4q19 0 43 4q-20 -13 -120 -89t-131 -104z" />
    <glyph glyph-name="l" unicode="l" horiz-adv-x="241" 
d="M268 744q-16 -56 -79.5 -345.5t-80.5 -402.5q-20 4 -41 4q-18 0 -40 -4q45 168 92 396.5t65 351.5q22 -4 38 -4q18 0 46 4z" />
    <glyph glyph-name="m" unicode="m" horiz-adv-x="833" 
d="M200 470l-20 -75h2q20 21 34 33.5t51.5 29.5t78.5 17q34 0 58 -9.5t37 -27t18 -30t10 -30.5q77 97 175 97q61 0 95.5 -32.5t34.5 -73.5q0 -22 -15 -93l-38 -182q-9 -44 -16 -98q-22 4 -39 4t-43 -4q16 45 47 176.5t31 167.5q0 41 -25 64.5t-66 23.5q-44 0 -85 -28.5
t-58 -85.5q-30 -103 -64 -318q-22 4 -38 4q-17 0 -43 -4q20 62 48 186t28 166q0 41 -27 60.5t-62 19.5q-13 0 -27.5 -3.5t-38 -13.5t-44.5 -35.5t-33 -63.5q-12 -36 -34 -152t-28 -164q-22 4 -40 4t-40 -4q25 88 57.5 240t42.5 234q16 -4 35 -4q15 0 41 4z" />
    <glyph glyph-name="n" unicode="n" 
d="M203 470l-19 -74l4 -2q25 32 69 56.5t96 24.5q57 0 98.5 -31.5t41.5 -88.5q0 -27 -23 -126q-38 -164 -45 -233q-22 4 -38 4q-20 0 -44 -4q16 49 45.5 173.5t29.5 169.5q0 42 -29 65.5t-70 23.5q-15 0 -33 -4.5t-40 -14.5t-41.5 -33t-30.5 -55q-15 -44 -38.5 -161.5
t-30.5 -163.5q-20 4 -37 4q-18 0 -40 -4q19 63 54.5 233t46.5 241q20 -4 36 -4q14 0 38 4z" />
    <glyph glyph-name="o" unicode="o" 
d="M32 187q0 114 77.5 203t201.5 89q110 0 161.5 -55.5t51.5 -139.5q0 -116 -79.5 -207t-203.5 -91q-59 0 -102 19t-65 50t-32 64t-10 68zM111 163q0 -67 31 -106t96 -39q53 0 95.5 30t65.5 75.5t34.5 92t11.5 86.5q0 64 -35 104.5t-98 40.5q-51 0 -92 -28.5t-63.5 -72.5
t-34 -91t-11.5 -92z" />
    <glyph glyph-name="p" unicode="p" horiz-adv-x="574" 
d="M126 87h-3l-68 -351q-18 4 -34 4t-42 -4q48 204 118 554q6 30 16.5 90.5t16.5 89.5q22 -4 39 -4q15 0 37 4q-12 -48 -19 -87q75 96 177 96q20 0 40 -3.5t45 -15.5t43.5 -31t31.5 -53.5t13 -79.5q0 -76 -31 -146.5t-93 -117.5t-139 -47q-53 0 -94 24.5t-54 77.5zM143 156
q0 -73 37 -103.5t82 -30.5q51 0 91 30.5t61.5 75.5t32.5 89t11 80q0 72 -36 105.5t-85 33.5q-45 0 -81 -24.5t-56.5 -59.5t-34 -76.5t-18 -71t-4.5 -48.5z" />
    <glyph glyph-name="q" unicode="q" horiz-adv-x="574" 
d="M387 74l-2 1q-64 -89 -168 -89q-73 0 -124 48t-51 145q0 123 72.5 210.5t179.5 87.5q79 0 125 -51q13 -14 30 -49h4q1 6 2.5 16.5t5 31.5l7.5 45q20 -4 38 -4q16 0 36 4q-47 -193 -123 -568q-18 -89 -30 -166q-20 4 -38 4q-19 0 -39 -4l49 223q3 17 12.5 56t13.5 59z
M122 172q0 -24 4.5 -47t16 -48t36.5 -40.5t61 -15.5q56 0 97 36.5t59.5 90t26 94.5t7.5 69q0 61 -35 96t-90 35q-60 0 -103 -45t-61.5 -104t-18.5 -121z" />
    <glyph glyph-name="r" unicode="r" horiz-adv-x="333" 
d="M332 396l-9 -5q-25 9 -40 9q-36 0 -69 -31.5t-50 -87.5q-7 -22 -30.5 -133t-28.5 -152q-22 4 -37 4q-17 0 -41 -4q19 60 54 228.5t45 245.5q22 -4 39 -4t37 4q-23 -85 -26 -108h5q2 3 13.5 18t15 19t14 17t16.5 17.5t16.5 14t19 13t19.5 8.5t22.5 6.5t24.5 1.5
q-10 -47 -10 -81z" />
    <glyph glyph-name="s" unicode="s" horiz-adv-x="389" 
d="M327 390h-9q-7 27 -30 43t-52 16q-42 0 -68.5 -29t-26.5 -66q0 -33 21 -51t65 -37q21 -10 32.5 -16.5t27.5 -19t23 -30t7 -40.5q0 -70 -60 -122.5t-146 -52.5q-60 0 -108 29q14 23 32 67h7q11 -29 38 -44.5t61 -15.5q52 0 80.5 32.5t28.5 70.5q0 16 -4.5 27.5t-16.5 21
t-23 15.5t-36 18q-29 13 -44.5 23t-31 34.5t-15.5 57.5q0 27 10 54t30.5 51.5t57.5 40t85 15.5q45 0 91 -20q-20 -44 -26 -72z" />
    <glyph glyph-name="t" unicode="t" horiz-adv-x="296" 
d="M149 563l87 32q-13 -46 -33 -138q18 0 54.5 2t49.5 2q-6 -21 -6 -41q-13 0 -51 2t-55 2l-39 -188q-23 -110 -23 -140q0 -36 22.5 -54.5t48.5 -18.5q33 0 66 20l-2 -26q-40 -31 -102 -31q-42 0 -74.5 25t-32.5 69q0 23 14 89l21.5 99.5l17 78.5l15.5 77q-22 0 -66 -2
q6 16 6 39q8 0 31 -2t33 -2z" />
    <glyph glyph-name="u" unicode="u" 
d="M352 -4l18 68l-4 4q-70 -83 -170 -83q-54 0 -97 31.5t-43 83.5q0 18 31 158q28 121 39 212q24 -4 44 -4q17 0 43 4q-78 -289 -78 -341q0 -46 25.5 -71t71.5 -25q55 0 94 33.5t55 82.5q25 75 66 321q28 -4 40 -4q17 0 41 4q-19 -63 -55.5 -228t-45.5 -246q-24 4 -36 4
q-17 0 -39 -4z" />
    <glyph glyph-name="v" unicode="v" horiz-adv-x="500" 
d="M232 91h6q50 80 101 174l108 205q18 -4 31 -4q16 0 34 4q-58 -85 -186 -298q-62 -104 -93 -176q-16 4 -26 4q-11 0 -25 -4q-13 70 -34 158l-76 316q20 -4 37 -4q19 0 39 4q30 -151 84 -379z" />
    <glyph glyph-name="w" unicode="w" horiz-adv-x="778" 
d="M200 97h6q27 41 105.5 181.5t100.5 191.5q13 -4 27 -4q11 0 27 4q4 -55 28 -190t35 -183h7q74 120 204 373q16 -4 31 -4t35 4q-30 -43 -122 -192.5t-164 -281.5q-12 4 -22 4q-11 0 -25 -4q-42 274 -65 366l-8 1q-149 -247 -207 -367q-9 4 -24 4q-12 0 -26 -4
q-8 72 -35 232.5t-45 241.5q24 -4 41 -4q16 0 40 4q17 -188 56 -373z" />
    <glyph glyph-name="x" unicode="x" horiz-adv-x="444" 
d="M193 230q-41 82 -127 240q32 -4 49 -4q18 0 42 4q33 -78 54 -123q4 -7 13.5 -28.5t15.5 -32.5q29 35 83 107q4 5 27 38.5t27 38.5q22 -4 32 -4q12 0 36 4l-191 -216l90 -170l47 -88q-26 4 -45 4q-18 0 -44 -4l-44 99q-14 34 -49 103q-91 -110 -152 -202q-18 4 -31 4
q-15 0 -35 -4z" />
    <glyph glyph-name="y" unicode="y" horiz-adv-x="500" 
d="M239 89h5l83 146q93 169 111 211l10 24q20 -4 35 -4q14 0 32 4q-289 -457 -425 -734q-16 4 -32 4q-15 0 -31 -4l164 263q-41 169 -121 471q24 -4 42 -4q17 0 39 4q26 -149 88 -381z" />
    <glyph glyph-name="z" unicode="z" horiz-adv-x="500" 
d="M10 -4v10q35 38 184 211t175 208l-2 7q-154 0 -268 -12q6 22 7 50q80 -4 208 -4q94 0 168 4l-1 -14q-57 -61 -190.5 -218.5t-167.5 -201.5l1 -4q199 0 298 11q-4 -17 -8 -47q-49 4 -133 4q-163 0 -271 -4z" />
    <glyph glyph-name="braceleft" unicode="{" horiz-adv-x="360" 
d="M61 265l7 32q66 3 96 26.5t43 66.5q4 12 24 93t25 95q36 103 190 103l-6 -32q-110 -3 -138 -103q-3 -11 -19 -80.5t-20 -81.5q-10 -31 -24 -52.5t-32 -32t-33.5 -15t-36.5 -6.5q81 -25 81 -93q0 -26 -14 -96q-15 -64 -15 -100q0 -71 94 -75l-6 -32q-59 0 -100.5 26
t-41.5 82q0 37 15 103q14 70 14 96q0 35 -32 54t-71 22z" />
    <glyph glyph-name="bar" unicode="|" horiz-adv-x="222" 
d="M84 -250v1000h54v-1000h-54z" />
    <glyph glyph-name="braceright" unicode="}" horiz-adv-x="360" 
d="M317 298l-7 -32q-66 -3 -96 -26.5t-43 -66.5q-4 -13 -24 -93.5t-25 -94.5q-36 -103 -190 -103l6 32q110 3 138 103q3 11 19 80.5t20 81.5q10 31 24 52.5t32 32t33.5 15t36.5 6.5q-81 25 -81 93q0 32 15 96q14 68 14 100q0 71 -94 75l6 32q59 0 100.5 -26t41.5 -82
q0 -33 -14 -103q-15 -64 -15 -96q0 -35 32 -54t71 -22z" />
    <glyph glyph-name="asciitilde" unicode="~" horiz-adv-x="593" 
d="M74 172h-38q22 131 118 131q15 0 36 -4t33.5 -8l41.5 -13.5t37 -11.5l36 -12.5t37.5 -12.5t31.5 -8t31 -4q66 0 83 81h36q-6 -55 -35.5 -92t-81.5 -37q-40 0 -149 37t-134 37q-34 0 -56 -24t-27 -59z" />
    <glyph glyph-name="uni00A0" unicode="&#xa0;" horiz-adv-x="278" 
 />
    <glyph glyph-name="exclamdown" unicode="&#xa1;" horiz-adv-x="333" 
d="M184 316h21l-62 -439q-3 -21 -5.5 -32t-8 -25.5t-16 -21t-25.5 -6.5q-21 0 -30.5 12t-9.5 28q0 21 12 61zM269 439q0 -21 -15 -36.5t-37 -15.5t-37 15t-15 37t15.5 37t36.5 15q22 0 37 -15.5t15 -36.5z" />
    <glyph glyph-name="cent" unicode="&#xa2;" 
d="M398 443l-129 -417q18 -5 43 -5q65 0 142 44l5 -2l-14 -42q-72 -35 -148 -35q-23 0 -39 3q-16 -54 -34 -126q-12 2 -22 2t-22 -2q1 4 12 36.5l20 60t12 35.5q-81 21 -115.5 75.5t-34.5 122.5q0 49 17 97.5t51 92t94 70t136 26.5q7 20 19 67.5t13 49.5q14 -2 22 -2t22 2
q-4 -12 -19 -54t-21 -65q57 -5 114 -28q-15 -31 -25 -72h-6q-27 51 -93 66zM237 37l125 410q-92 -1 -150 -79t-58 -177q0 -113 83 -154z" />
    <glyph glyph-name="sterling" unicode="&#xa3;" 
d="M590 577l-46 -50l-9 3q1 45 -22 72.5t-65 27.5q-46 0 -83 -33t-56 -80q-27 -65 -37 -160q129 0 194 2q-7 -18 -7 -40q-118 4 -191 4q-9 -62 -22 -104t-34.5 -71.5t-38.5 -45.5t-51 -41v-4q57 -3 191 -3q126 0 200 9q-15 -37 -19 -67q-181 4 -311 4q-132 0 -190 -4
q13 22 15 59q42 -4 75 12q53 27 73.5 84t34.5 173q-36 0 -106 -2q10 19 12 40q60 -5 98 -5q8 53 13 79.5t19 63.5t37 67q33 44 81.5 69.5t105.5 25.5q35 0 61.5 -8.5t42 -25t22 -26.5t13.5 -25z" />
    <glyph glyph-name="currency" unicode="&#xa4;" 
d="M67 129l64 64q-46 60 -46 130t45 131l-63 63l34 34l63 -63q60 45 131 45q67 0 131 -45l63 63l34 -34l-63 -63q45 -64 45 -131q0 -69 -46 -130l64 -64l-34 -34l-64 64q-60 -46 -130 -46q-71 0 -130 46l-64 -63zM295 481q-65 0 -111.5 -46t-46.5 -112q0 -65 46.5 -111.5
t111.5 -46.5t111.5 46.5t46.5 111.5q0 66 -46.5 112t-111.5 46z" />
    <glyph glyph-name="yen" unicode="&#xa5;" 
d="M324 265l-20 -87q59 0 156 5q-11 -23 -11 -47q-41 4 -152 4q-18 -90 -25 -144q-26 4 -45 4q-16 0 -38 -4q22 79 35 144q-89 0 -161 -4q11 19 9 47q53 -5 160 -5l18 87q-92 0 -158 -5q8 22 8 47q52 -4 144 -4l-65 156q-17 37 -84 202q28 -4 49 -4q18 0 42 4
q41 -123 125 -332h5q167 225 231 332q22 -4 32 -4q13 0 34 4q-24 -35 -145 -194l-125 -164q95 1 144 5q-10 -26 -9 -47q-68 4 -154 4z" />
    <glyph glyph-name="brokenbar" unicode="&#xa6;" horiz-adv-x="222" 
d="M84 -175v350h54v-350h-54zM84 325v350h54v-350h-54z" />
    <glyph glyph-name="section" unicode="&#xa7;" 
d="M473 569h-10q-5 16 -10.5 27.5t-17.5 27t-32.5 24t-48.5 8.5q-54 0 -85 -32.5t-31 -71.5q0 -38 24 -60.5t101 -68.5q40 -24 61.5 -40t40 -45t18.5 -64q0 -74 -95 -147q26 -29 26 -72q0 -68 -59.5 -125.5t-151.5 -57.5q-93 0 -158 57q17 28 26 74h11q5 -28 38.5 -62.5
t90.5 -34.5q63 0 97 39t34 82t-26.5 68.5t-93.5 63.5q-35 20 -52 31.5t-38.5 30.5t-30.5 40.5t-9 48.5q0 48 31 86t71 62q-21 29 -21 65q0 62 51.5 113t142.5 51q71 0 135 -46q-15 -25 -29 -72zM208 440q-60 -38 -60 -100q0 -34 25 -57t100 -68q82 -50 100 -69q26 23 40 44
t14 51q0 34 -24 59.5t-78 58.5q-69 42 -85.5 53.5t-31.5 27.5z" />
    <glyph glyph-name="dieresis" unicode="&#xa8;" horiz-adv-x="241" 
d="M32 610q0 18 13.5 32t32.5 14q20 0 33.5 -13.5t13.5 -32.5q0 -20 -13.5 -33.5t-33.5 -13.5q-19 0 -32.5 14t-13.5 33zM229 610q0 18 13.5 32t32.5 14q20 0 33.5 -13.5t13.5 -32.5q0 -20 -14 -33.5t-33 -13.5t-32.5 14t-13.5 33z" />
    <glyph glyph-name="copyright" unicode="&#xa9;" horiz-adv-x="757" 
d="M35 338q0 147 104 252t253 105q148 0 252 -104.5t104 -252.5t-104 -252.5t-252 -104.5q-149 0 -253 104.5t-104 252.5zM72 338q0 -133 93 -226.5t227 -93.5q132 0 225.5 93.5t93.5 226.5q0 132 -93.5 226t-225.5 94q-134 0 -227 -94t-93 -226zM548 208l-7 -39
q-61 -37 -145 -37q-96 0 -157 55.5t-61 148.5q0 89 59.5 150.5t181.5 61.5q70 0 129 -25q-10 -24 -13 -49l-9 -2q-49 47 -119 47q-67 0 -114 -45.5t-47 -135.5q0 -88 47.5 -131.5t112.5 -43.5q69 0 134 49z" />
    <glyph glyph-name="ordfeminine" unicode="&#xaa;" horiz-adv-x="330" 
d="M124 624l11 39q50 32 105 32q41 0 65.5 -19.5t24.5 -49.5q0 -16 -7 -47l-18 -70q-9 -36 -9 -51q0 -22 19 -22q8 0 20 7l6 -21q-29 -17 -52 -17q-34 0 -44 35q-48 -41 -93 -41q-35 0 -58 20t-23 48t15 48t42.5 30.5t48 15.5t50.5 9q21 3 29 5.5t13.5 11.5t5.5 28
q0 23 -16.5 35t-40.5 12q-40 0 -78 -38h-16zM262 550q-2 -1 -15.5 -3t-28 -5t-23.5 -6q-70 -20 -70 -62q0 -20 13 -30t32 -10q45 0 77 44q7 45 15 72z" />
    <glyph glyph-name="guillemotleft" unicode="&#xab;" horiz-adv-x="500" 
d="M143 244l70 -178q-23 -2 -43 -16l-72 201l141 171q20 -17 37 -24zM289 244l71 -178q-23 -2 -44 -16l-72 201l141 171q19 -16 37 -24z" />
    <glyph glyph-name="logicalnot" unicode="&#xac;" horiz-adv-x="593" 
d="M48 308v48h498v-231h-52v183h-446z" />
    <glyph glyph-name="uni00AD" unicode="&#xad;" horiz-adv-x="296" 
d="M49 302h219l-13 -59h-219z" />
    <glyph glyph-name="registered" unicode="&#xae;" horiz-adv-x="378" 
d="M239 695q74 0 126 -53t52 -126q0 -74 -52.5 -126t-124.5 -52q-73 0 -125.5 52t-52.5 126t52.5 126.5t124.5 52.5zM239 668q-61 0 -105.5 -45t-44.5 -107t44.5 -106.5t106.5 -44.5q63 0 106.5 44.5t43.5 106.5t-43.5 107t-107.5 45zM215 511h-5q0 -55 2 -84q-10 2 -17 2
q-6 0 -18 -2q3 34 3 90q0 61 -2 90q10 -1 22 -1q2 0 13 0.5t20 0.5q71 4 71 -42q0 -37 -53 -51q61 -71 71 -80v-7q-14 2 -18 2q-3 0 -19 -2q-3 4 -19.5 24l-31 37.5t-19.5 22.5zM272 562q0 33 -61 28q-1 -20 -1 -62q62 -4 62 34z" />
    <glyph glyph-name="macron" unicode="&#xaf;" horiz-adv-x="241" 
d="M58 634h296l-10 -48h-297z" />
    <glyph glyph-name="degree" unicode="&#xb0;" horiz-adv-x="400" 
d="M240 666q61 0 104.5 -43.5t43.5 -104.5q0 -62 -43.5 -105.5t-104.5 -43.5q-62 0 -105 43.5t-43 105.5q0 61 43.5 104.5t104.5 43.5zM240 618q-41 0 -70.5 -29t-29.5 -71t29.5 -71.5t70.5 -29.5q42 0 71 29.5t29 71.5q0 41 -29.5 70.5t-70.5 29.5z" />
    <glyph glyph-name="plusminus" unicode="&#xb1;" horiz-adv-x="593" 
d="M271 86v178h-223v48h223v178h52v-178h223v-48h-223v-178h-52zM48 -8v48h498v-48h-498z" />
    <glyph glyph-name="twosuperior" unicode="&#xb2;" horiz-adv-x="363" 
d="M46 264l1 20q109 90 170 155q69 73 69 134q0 28 -16 45t-44 17q-25 0 -46 -14t-31 -40h-9q-8 20 -19 29q39 52 117 52q54 0 82 -24.5t28 -61.5q0 -64 -85 -140q-111 -98 -141 -127q122 0 192 4q-12 -27 -11 -49q-25 0 -74 1.5t-74 1.5q-64 0 -109 -3z" />
    <glyph glyph-name="threesuperior" unicode="&#xb3;" horiz-adv-x="363" 
d="M149 588l-13 32q46 42 104 42q50 0 76.5 -22.5t26.5 -54.5q0 -67 -89 -108q75 -16 75 -77q0 -54 -49.5 -98.5t-136.5 -44.5q-52 0 -97 22q11 17 16 40h8q35 -35 84 -35t81.5 34t32.5 79q0 27 -16.5 44t-45.5 17q-20 0 -47 -10l10 36q36 -2 61 9t36 28.5t15.5 31.5t4.5 26
q0 26 -14.5 41t-40.5 15q-48 0 -74 -47h-8z" />
    <glyph glyph-name="acute" unicode="&#xb4;" horiz-adv-x="241" 
d="M159 538h-30l138 135q32 32 47 32q13 0 23 -9t10 -23q0 -13 -7.5 -21t-29.5 -21z" />
    <glyph glyph-name="mu" unicode="&#xb5;" 
d="M352 -4l18 68l-4 4q-70 -83 -170 -83q-58 0 -87 35q-34 -168 -52 -284q-24 4 -37 4q-16 0 -42 -4q48 204 118 554q19 94 31 180q24 -4 43 -4q18 0 42 4q-77 -290 -77 -341q0 -46 25.5 -71t71.5 -25q55 0 94 33.5t55 82.5q16 48 39 170t26 151q30 -4 41 -4q17 0 41 4
q-19 -63 -55.5 -228t-45.5 -246q-24 4 -36 4q-17 0 -39 -4z" />
    <glyph glyph-name="paragraph" unicode="&#xb6;" 
d="M586 637h-53l-179 -841h-53l178 841h-126l-179 -841h-53l92 436q-74 7 -115 46q-49 47 -49 128q0 108 72 183q88 92 237 92h238z" />
    <glyph glyph-name="periodcentered" unicode="&#xb7;" horiz-adv-x="278" 
d="M98 294q0 21 15 36.5t37 15.5t37 -15t15 -37t-15.5 -37t-36.5 -15q-22 0 -37 15.5t-15 36.5z" />
    <glyph glyph-name="cedilla" unicode="&#xb8;" horiz-adv-x="241" 
d="M78 -1h34l-40 -64q12 2 22 2q35 0 58 -18.5t23 -49.5q0 -39 -34 -61.5t-84 -22.5q-43 0 -92 20l18 28q33 -14 66 -14q26 0 41.5 12.5t15.5 31.5q0 15 -11.5 27.5t-37.5 12.5q-18 0 -34 -6l-6 7z" />
    <glyph glyph-name="onesuperior" unicode="&#xb9;" horiz-adv-x="363" 
d="M236 612l-67 -28l-19 19v9q81 22 144 60l12 -8q-49 -178 -89 -400q-27 3 -30 3q-4 0 -34 -3q13 45 42.5 168t40.5 180z" />
    <glyph glyph-name="ordmasculine" unicode="&#xba;" horiz-adv-x="365" 
d="M79 521q0 68 49 121t127 53q68 0 102.5 -32.5t34.5 -86.5q0 -68 -50.5 -122.5t-129.5 -54.5q-60 0 -96.5 32t-36.5 90zM137 506q0 -79 74 -79q61 0 92 53.5t31 107.5q0 36 -20.5 57.5t-56.5 21.5q-40 0 -68.5 -28t-40 -63t-11.5 -70z" />
    <glyph glyph-name="guillemotright" unicode="&#xbb;" horiz-adv-x="500" 
d="M348 228l-71 179q25 3 43 15l72 -200l-141 -172q-17 15 -37 25zM201 228l-70 179q24 2 43 15l72 -200l-141 -172q-15 14 -37 25z" />
    <glyph glyph-name="onequarter" unicode="&#xbc;" horiz-adv-x="874" 
d="M755 151l64 1q-11 -20 -12 -45q-39 3 -61 3q-17 -81 -22 -113q-12 3 -28 3q-18 0 -33 -3q12 34 32 113q-39 1 -76 1q-51 0 -111 -1l1 17l131 134l135 135q9 -3 19 -3t20 3q-31 -112 -59 -245zM575 151h129l38 172q-138 -138 -167 -172zM684 685l-438 -723h-44l438 723h44
zM236 612l-67 -28l-19 19v9q81 22 144 60l12 -8q-49 -178 -89 -400q-27 3 -30 3q-4 0 -34 -3q13 45 42.5 168t40.5 180z" />
    <glyph glyph-name="onehalf" unicode="&#xbd;" horiz-adv-x="874" 
d="M684 685l-437 -723h-45l438 723h44zM506 -3l1 20q109 90 170 155q69 73 69 134q0 28 -16 45t-44 17q-25 0 -46 -14t-31 -40h-9q-8 20 -19 29q39 52 117 52q54 0 82 -24.5t28 -61.5q0 -64 -85 -140q-111 -98 -141 -127q122 0 192 4q-12 -27 -11 -49q-25 0 -74 1.5t-74 1.5
q-64 0 -109 -3zM236 612l-67 -28l-19 19v9q81 22 144 60l12 -8q-49 -178 -89 -400q-27 3 -30 3q-4 0 -34 -3q13 45 42.5 168t40.5 180z" />
    <glyph glyph-name="threequarters" unicode="&#xbe;" horiz-adv-x="874" 
d="M756 151l64 1q-12 -20 -12 -45q-39 3 -61 3q-17 -77 -22 -113q-13 3 -29 3q-18 0 -32 -3q11 33 31 113q-39 1 -76 1q-51 0 -111 -1l1 17l132 134l134 135q9 -3 20 -3q9 0 20 3q-34 -114 -59 -245zM575 151h129l38 172q-129 -129 -167 -172zM689 685l-437 -723h-45
l438 723h44zM147 588l-13 32q46 42 104 42q50 0 76.5 -22.5t26.5 -54.5q0 -67 -89 -108q75 -16 75 -77q0 -54 -49.5 -98.5t-136.5 -44.5q-52 0 -97 22q11 17 16 40h8q35 -35 84 -35t81.5 34t32.5 79q0 27 -16.5 44t-45.5 17q-20 0 -47 -10l10 36q36 -2 61 9t36 28.5
t15.5 31.5t4.5 26q0 26 -14.5 41t-40.5 15q-48 0 -74 -47h-8z" />
    <glyph glyph-name="questiondown" unicode="&#xbf;" horiz-adv-x="444" 
d="M145 285l13 29q12 2 18 2q46 0 78 -28.5t32 -79.5q0 -27 -8.5 -49.5t-29.5 -44t-36.5 -33.5l-49.5 -37q-28 -20 -41 -30.5t-31 -29t-25.5 -38.5t-7.5 -45q0 -42 27.5 -61.5t56.5 -19.5q52 0 93 43l5 -3q-8 -34 -8 -50q-48 -20 -90 -20q-70 0 -105.5 40t-35.5 93
q0 89 94 158q80 59 103 79q41 34 41 72q0 27 -17.5 42t-44.5 15q-14 0 -28 -6zM295 439q0 -21 -15 -36.5t-37 -15.5t-37 15t-15 37t15.5 37t36.5 15q22 0 37 -15.5t15 -36.5z" />
    <glyph glyph-name="Agrave" unicode="&#xc0;" horiz-adv-x="667" 
d="M436 692h19l76 -372t72 -324q-26 4 -46 4q-19 0 -45 -4q-11 112 -45 270q-60 3 -133 3q-20 0 -42 -0.5t-48.5 -1.5t-41.5 -1q-29 -43 -81.5 -133t-75.5 -137q-18 4 -32 4q-8 0 -38 -4l341 512l57 86.5t63 97.5zM459 305l-55 265h-3l-174 -265q57 -3 116 -3q57 0 116 3z
M511 721h-28l-123 95q-19 15 -26 23t-7 20q0 14 9 23t24 9q13 0 21.5 -7.5t27.5 -31.5z" />
    <glyph glyph-name="Aacute" unicode="&#xc1;" horiz-adv-x="667" 
d="M436 692h19l76 -372t72 -324q-26 4 -46 4q-19 0 -45 -4q-11 112 -45 270q-60 3 -133 3q-20 0 -42 -0.5t-48.5 -1.5t-41.5 -1q-29 -43 -81.5 -133t-75.5 -137q-18 4 -32 4q-8 0 -38 -4l341 512l57 86.5t63 97.5zM459 305l-55 265h-3l-174 -265q57 -3 116 -3q57 0 116 3z
M402 721h-30l138 135q32 32 47 32q13 0 23 -9t10 -23q0 -13 -7.5 -21t-29.5 -21z" />
    <glyph glyph-name="Acircumflex" unicode="&#xc2;" horiz-adv-x="667" 
d="M436 692h19l76 -372t72 -324q-26 4 -46 4q-19 0 -45 -4q-11 112 -45 270q-60 3 -133 3q-20 0 -42 -0.5t-48.5 -1.5t-41.5 -1q-29 -43 -81.5 -133t-75.5 -137q-18 4 -32 4q-8 0 -38 -4l341 512l57 86.5t63 97.5zM459 305l-55 265h-3l-174 -265q57 -3 116 -3q57 0 116 3z
M447 888h40l88 -167h-32l-83 107l-137 -107h-35z" />
    <glyph glyph-name="Atilde" unicode="&#xc3;" horiz-adv-x="667" 
d="M436 692h19l76 -372t72 -324q-26 4 -46 4q-19 0 -45 -4q-11 112 -45 270q-60 3 -133 3q-20 0 -42 -0.5t-48.5 -1.5t-41.5 -1q-29 -43 -81.5 -133t-75.5 -137q-18 4 -32 4q-8 0 -38 -4l341 512l57 86.5t63 97.5zM459 305l-55 265h-3l-174 -265q57 -3 116 -3q57 0 116 3z
M312 762h-26q12 46 32.5 74t60.5 28q30 0 84 -22t72 -22q29 0 45 47h26q-8 -42 -31 -72.5t-61 -30.5q-28 0 -78 23q-54 22 -73 22q-20 0 -31 -12.5t-20 -34.5z" />
    <glyph glyph-name="Adieresis" unicode="&#xc4;" horiz-adv-x="667" 
d="M436 692h19l76 -372t72 -324q-26 4 -46 4q-19 0 -45 -4q-11 112 -45 270q-60 3 -133 3q-20 0 -42 -0.5t-48.5 -1.5t-41.5 -1q-29 -43 -81.5 -133t-75.5 -137q-18 4 -32 4q-8 0 -38 -4l341 512l57 86.5t63 97.5zM459 305l-55 265h-3l-174 -265q57 -3 116 -3q57 0 116 3z
M300 793q0 18 13.5 32t32.5 14q20 0 33.5 -13.5t13.5 -32.5t-13.5 -33t-33.5 -14q-19 0 -32.5 14t-13.5 33zM497 793q0 18 13.5 32t32.5 14q20 0 33.5 -13.5t13.5 -32.5t-14 -33t-33 -14t-32.5 14t-13.5 33z" />
    <glyph glyph-name="Aring" unicode="&#xc5;" horiz-adv-x="667" 
d="M436 692h19l76 -372t72 -324q-26 4 -46 4q-19 0 -45 -4q-11 112 -45 270q-60 3 -133 3q-20 0 -42 -0.5t-48.5 -1.5t-41.5 -1q-29 -43 -81.5 -133t-75.5 -137q-18 4 -32 4q-8 0 -38 -4l341 512l57 86.5t63 97.5zM459 305l-55 265h-3l-174 -265q57 -3 116 -3q57 0 116 3z
M357 820q0 42 30.5 72.5t73.5 30.5q42 0 72.5 -30t30.5 -73t-30 -73.5t-73 -30.5t-73.5 30.5t-30.5 73.5zM391 820q0 -29 20.5 -49.5t49.5 -20.5t49 20.5t20 49.5q0 28 -20 48.5t-49 20.5t-49.5 -20t-20.5 -49z" />
    <glyph glyph-name="AE" unicode="&#xc6;" horiz-adv-x="852" 
d="M651 339h-89q-32 -145 -60 -301q155 0 265 12q-7 -27 -6 -54q-136 4 -204 4q-42 0 -154 -4q47 151 69 273q-38 2 -114 2q-78 0 -106 -2q-32 -41 -120 -164q-37 -51 -69 -109q-20 4 -36 4q-17 0 -43 -4l282 351.5t263 333.5q142 -4 183 -4q63 0 151 4q-10 -29 -9 -55
q-68 12 -229 12l-56 -260h103q21 0 129 6q-10 -29 -9 -51q-56 6 -141 6zM541 624h-5l-253 -316q23 -2 99 -2q74 0 98 2q54 256 61 316z" />
    <glyph glyph-name="Ccedilla" unicode="&#xc7;" horiz-adv-x="667" 
d="M589 87l4 -5q-11 -26 -16 -53q-95 -46 -197 -46q-17 0 -25 1l-31 -49q12 2 22 2q35 0 58 -18.5t23 -49.5q0 -39 -34 -61.5t-84 -22.5q-43 0 -92 20l18 28q33 -14 66 -14q26 0 41.5 12.5t15.5 31.5q0 15 -11.5 27.5t-37.5 12.5q-18 0 -34 -6l-6 7l53 83q-117 15 -191 90
t-74 208q0 173 117.5 290t314.5 117q116 0 191 -39q-20 -38 -29 -67q-71 71 -180 71q-101 0 -177 -55.5t-112.5 -140.5t-36.5 -185q0 -117 58 -179q69 -75 183 -75q104 0 203 65z" />
    <glyph glyph-name="Egrave" unicode="&#xc8;" horiz-adv-x="500" 
d="M301 339h-93q-34 -161 -59 -301q172 0 268 12q-7 -27 -6 -54q-136 4 -204 4q-42 0 -154 -4q37 140 80 344t66 341q128 -4 176 -4q76 0 138 4q-10 -29 -9 -55q-68 12 -228 12q-7 -27 -60 -260h119q47 0 116 6q-10 -29 -9 -51q-56 6 -141 6zM428 721h-28l-123 95
q-19 15 -26 23t-7 20q0 14 9 23t24 9q13 0 21.5 -7.5t27.5 -31.5z" />
    <glyph glyph-name="Eacute" unicode="&#xc9;" horiz-adv-x="500" 
d="M301 339h-93q-34 -161 -59 -301q172 0 268 12q-7 -27 -6 -54q-136 4 -204 4q-42 0 -154 -4q37 140 80 344t66 341q128 -4 176 -4q76 0 138 4q-10 -29 -9 -55q-68 12 -228 12q-7 -27 -60 -260h119q47 0 116 6q-10 -29 -9 -51q-56 6 -141 6zM329 721h-30l138 135
q32 32 47 32q13 0 23 -9t10 -23q0 -13 -7.5 -21t-29.5 -21z" />
    <glyph glyph-name="Ecircumflex" unicode="&#xca;" horiz-adv-x="500" 
d="M301 339h-93q-34 -161 -59 -301q172 0 268 12q-7 -27 -6 -54q-136 4 -204 4q-42 0 -154 -4q37 140 80 344t66 341q128 -4 176 -4q76 0 138 4q-10 -29 -9 -55q-68 12 -228 12q-7 -27 -60 -260h119q47 0 116 6q-10 -29 -9 -51q-56 6 -141 6zM369 888h40l88 -167h-32
l-83 107l-137 -107h-35z" />
    <glyph glyph-name="Edieresis" unicode="&#xcb;" horiz-adv-x="500" 
d="M301 339h-93q-34 -161 -59 -301q172 0 268 12q-7 -27 -6 -54q-136 4 -204 4q-42 0 -154 -4q37 140 80 344t66 341q128 -4 176 -4q76 0 138 4q-10 -29 -9 -55q-68 12 -228 12q-7 -27 -60 -260h119q47 0 116 6q-10 -29 -9 -51q-56 6 -141 6zM217 793q0 18 13.5 32t32.5 14
q20 0 33.5 -13.5t13.5 -32.5t-14 -33t-33 -14t-32.5 14t-13.5 33zM414 793q0 18 13.5 32t32.5 14q20 0 33.5 -13.5t13.5 -32.5t-13.5 -33t-33.5 -14q-19 0 -32.5 14t-13.5 33z" />
    <glyph glyph-name="Igrave" unicode="&#xcc;" horiz-adv-x="278" 
d="M43 -4q37 140 80 344t66 341q24 -4 43 -4q20 0 46 4q-90 -342 -146 -685q-24 4 -44 4q-19 0 -45 -4zM312 721h-28l-123 95q-19 15 -26 23t-7 20q0 14 9 23t24 9q13 0 21.5 -7.5t27.5 -31.5z" />
    <glyph glyph-name="Iacute" unicode="&#xcd;" horiz-adv-x="278" 
d="M43 -4q37 140 80 344t66 341q24 -4 43 -4q20 0 46 4q-90 -342 -146 -685q-24 4 -44 4q-19 0 -45 -4zM218 721h-30l138 135q32 32 47 32q13 0 23 -9t10 -23q0 -13 -7.5 -21t-29.5 -21z" />
    <glyph glyph-name="Icircumflex" unicode="&#xce;" horiz-adv-x="278" 
d="M43 -4q37 140 80 344t66 341q24 -4 43 -4q20 0 46 4q-90 -342 -146 -685q-24 4 -44 4q-19 0 -45 -4zM248 888h40l88 -167h-32l-83 107l-137 -107h-35z" />
    <glyph glyph-name="Idieresis" unicode="&#xcf;" horiz-adv-x="278" 
d="M43 -4q37 140 80 344t66 341q24 -4 43 -4q20 0 46 4q-90 -342 -146 -685q-24 4 -44 4q-19 0 -45 -4zM91 793q0 18 13.5 32t32.5 14q20 0 33.5 -13.5t13.5 -32.5t-14 -33t-33 -14t-32.5 14t-13.5 33zM288 793q0 18 13.5 32t32.5 14q20 0 33.5 -13.5t13.5 -32.5t-13.5 -33
t-33.5 -14q-19 0 -32.5 14t-13.5 33z" />
    <glyph glyph-name="Eth" unicode="&#xd0;" horiz-adv-x="778" 
d="M756 407q0 -60 -18.5 -119.5t-67 -123t-121.5 -106.5q-60 -35 -121.5 -48.5t-155.5 -13.5q-75 0 -143 4q-48 0 -70 -4q38 143 86 372q-54 -1 -96 -3q7 23 11 42q62 -2 93 -2q36 176 52 276q2 0 23.5 -2t35.5 -2q24 0 79 2t84 2q145 0 210 -37q55 -31 87 -94.5t32 -142.5z
M670 407q0 63 -21.5 116t-59.5 80q-56 41 -190 41q-57 0 -116 -3l-55 -236q135 0 186 2q-6 -19 -10 -41q-27 2 -184 2q-33 -156 -65 -330q49 -5 117 -5q162 0 249 68q69 53 109 138t40 168z" />
    <glyph glyph-name="Ntilde" unicode="&#xd1;" horiz-adv-x="778" 
d="M208 690h12q42 -75 192.5 -295.5t189.5 -265.5q17 62 53.5 251t49.5 301q18 -4 35 -4q10 0 30 4q-28 -96 -85.5 -361t-65.5 -335h-14q-22 40 -186 278t-196 279q-25 -102 -62.5 -292.5t-42.5 -253.5q-20 4 -34 4q-15 0 -35 -4q30 91 86.5 346t72.5 348zM363 762h-26
q12 46 32.5 74t60.5 28q30 0 84 -22t72 -22q29 0 45 47h26q-8 -42 -31 -72.5t-61 -30.5q-28 0 -78 23q-54 22 -73 22q-20 0 -31 -12.5t-20 -34.5z" />
    <glyph glyph-name="Ograve" unicode="&#xd2;" horiz-adv-x="833" 
d="M61 268q0 127 59 225.5t157.5 150t217.5 51.5q146 0 232 -78.5t86 -211.5q0 -76 -29.5 -150.5t-82.5 -136t-137 -99.5t-183 -38q-147 0 -234 73q-86 71 -86 214zM147 256q0 -123 66 -183t168 -60q68 0 126.5 25.5t98 67t67.5 94.5t41 106.5t13 103.5q0 125 -69 189
t-173 64q-100 0 -179 -59t-119 -151.5t-40 -196.5zM589 721h-28l-123 95q-19 15 -26 23t-7 20q0 14 9 23t24 9q13 0 21.5 -7.5t27.5 -31.5z" />
    <glyph glyph-name="Oacute" unicode="&#xd3;" horiz-adv-x="833" 
d="M61 268q0 127 59 225.5t157.5 150t217.5 51.5q146 0 232 -78.5t86 -211.5q0 -76 -29.5 -150.5t-82.5 -136t-137 -99.5t-183 -38q-147 0 -234 73q-86 71 -86 214zM147 256q0 -123 66 -183t168 -60q68 0 126.5 25.5t98 67t67.5 94.5t41 106.5t13 103.5q0 125 -69 189
t-173 64q-100 0 -179 -59t-119 -151.5t-40 -196.5zM475 721h-30l138 135q32 32 47 32q13 0 23 -9t10 -23q0 -13 -7.5 -21t-29.5 -21z" />
    <glyph glyph-name="Ocircumflex" unicode="&#xd4;" horiz-adv-x="833" 
d="M61 268q0 127 59 225.5t157.5 150t217.5 51.5q146 0 232 -78.5t86 -211.5q0 -76 -29.5 -150.5t-82.5 -136t-137 -99.5t-183 -38q-147 0 -234 73q-86 71 -86 214zM147 256q0 -123 66 -183t168 -60q68 0 126.5 25.5t98 67t67.5 94.5t41 106.5t13 103.5q0 125 -69 189
t-173 64q-100 0 -179 -59t-119 -151.5t-40 -196.5zM525 888h40l88 -167h-32l-83 107l-137 -107h-35z" />
    <glyph glyph-name="Otilde" unicode="&#xd5;" horiz-adv-x="833" 
d="M61 268q0 127 59 225.5t157.5 150t217.5 51.5q146 0 232 -78.5t86 -211.5q0 -76 -29.5 -150.5t-82.5 -136t-137 -99.5t-183 -38q-147 0 -234 73q-86 71 -86 214zM147 256q0 -123 66 -183t168 -60q68 0 126.5 25.5t98 67t67.5 94.5t41 106.5t13 103.5q0 125 -69 189
t-173 64q-100 0 -179 -59t-119 -151.5t-40 -196.5zM380 762h-26q12 46 32.5 74t60.5 28q30 0 84 -22t72 -22q29 0 45 47h26q-8 -42 -31 -72.5t-61 -30.5q-28 0 -78 23q-54 22 -73 22q-20 0 -31 -12.5t-20 -34.5z" />
    <glyph glyph-name="Odieresis" unicode="&#xd6;" horiz-adv-x="833" 
d="M61 268q0 127 59 225.5t157.5 150t217.5 51.5q146 0 232 -78.5t86 -211.5q0 -76 -29.5 -150.5t-82.5 -136t-137 -99.5t-183 -38q-147 0 -234 73q-86 71 -86 214zM147 256q0 -123 66 -183t168 -60q68 0 126.5 25.5t98 67t67.5 94.5t41 106.5t13 103.5q0 125 -69 189
t-173 64q-100 0 -179 -59t-119 -151.5t-40 -196.5zM368 793q0 18 13.5 32t32.5 14q20 0 33.5 -13.5t13.5 -32.5t-13.5 -33t-33.5 -14q-19 0 -32.5 14t-13.5 33zM565 793q0 18 13.5 32t32.5 14q20 0 33.5 -13.5t13.5 -32.5t-14 -33t-33 -14t-32.5 14t-13.5 33z" />
    <glyph glyph-name="multiply" unicode="&#xd7;" horiz-adv-x="593" 
d="M63 44l197 197l-197 197l37 37l196 -197l197 197l37 -36l-197 -197l197 -198l-37 -36l-196 197l-197 -197z" />
    <glyph glyph-name="Oslash" unicode="&#xd8;" horiz-adv-x="833" 
d="M806 696l-77 -82q84 -81 84 -209q0 -76 -30 -151t-83.5 -136t-137 -99t-181.5 -38q-122 0 -208 53l-85 -90l-27 25l84 85q-47 44 -65 95q-20 59 -20 121q0 182 122.5 303.5t311.5 121.5q122 0 208 -58l79 83zM684 568l-473 -494q65 -61 170 -61q68 0 127 26t98 67.5
t67 94.5t41 106t13 102q0 92 -43 159zM189 100l473 495q-69 68 -177 68q-80 0 -146 -37t-107 -97t-63.5 -130t-22.5 -140q0 -96 43 -159z" />
    <glyph glyph-name="Ugrave" unicode="&#xd9;" horiz-adv-x="778" 
d="M100 166q0 17 6 52.5t13 65.5l16 69l11 48q34 155 52 280q26 -4 47 -4q18 0 42 4q-35 -125 -87 -364q-22 -101 -22 -144q0 -72 57 -110.5t129 -38.5q74 0 138 38.5t93 108.5q53 131 112 510q18 -4 35 -4q13 0 33 4q-17 -58 -32 -121.5l-34 -146l-28 -121.5
q-20 -82 -40.5 -130t-61.5 -89q-93 -93 -239 -93q-94 0 -167 48t-73 138zM587 721h-28l-123 95q-19 15 -26 23t-7 20q0 14 9 23t24 9q13 0 21.5 -7.5t27.5 -31.5z" />
    <glyph glyph-name="Uacute" unicode="&#xda;" horiz-adv-x="778" 
d="M100 166q0 17 6 52.5t13 65.5l16 69l11 48q34 155 52 280q26 -4 47 -4q18 0 42 4q-35 -125 -87 -364q-22 -101 -22 -144q0 -72 57 -110.5t129 -38.5q74 0 138 38.5t93 108.5q53 131 112 510q18 -4 35 -4q13 0 33 4q-17 -58 -32 -121.5l-34 -146l-28 -121.5
q-20 -82 -40.5 -130t-61.5 -89q-93 -93 -239 -93q-94 0 -167 48t-73 138zM468 721h-30l138 135q32 32 47 32q13 0 23 -9t10 -23q0 -13 -7.5 -21t-29.5 -21z" />
    <glyph glyph-name="Ucircumflex" unicode="&#xdb;" horiz-adv-x="778" 
d="M100 166q0 17 6 52.5t13 65.5l16 69l11 48q34 155 52 280q26 -4 47 -4q18 0 42 4q-35 -125 -87 -364q-22 -101 -22 -144q0 -72 57 -110.5t129 -38.5q74 0 138 38.5t93 108.5q53 131 112 510q18 -4 35 -4q13 0 33 4q-17 -58 -32 -121.5l-34 -146l-28 -121.5
q-20 -82 -40.5 -130t-61.5 -89q-93 -93 -239 -93q-94 0 -167 48t-73 138zM508 888h40l88 -167h-32l-83 107l-137 -107h-35z" />
    <glyph glyph-name="Udieresis" unicode="&#xdc;" horiz-adv-x="778" 
d="M100 166q0 17 6 52.5t13 65.5l16 69l11 48q34 155 52 280q26 -4 47 -4q18 0 42 4q-35 -125 -87 -364q-22 -101 -22 -144q0 -72 57 -110.5t129 -38.5q74 0 138 38.5t93 108.5q53 131 112 510q18 -4 35 -4q13 0 33 4q-17 -58 -32 -121.5l-34 -146l-28 -121.5
q-20 -82 -40.5 -130t-61.5 -89q-93 -93 -239 -93q-94 0 -167 48t-73 138zM341 793q0 18 13.5 32t32.5 14q20 0 33.5 -13.5t13.5 -32.5t-14 -33t-33 -14t-32.5 14t-13.5 33zM538 793q0 18 13.5 32t32.5 14q20 0 33.5 -13.5t13.5 -32.5t-13.5 -33t-33.5 -14q-19 0 -32.5 14
t-13.5 33z" />
    <glyph glyph-name="Yacute" unicode="&#xdd;" 
d="M302 332h4q9 11 49.5 65.5l99 139.5t93.5 144q16 -4 31 -4q14 0 37 4l-145.5 -194t-141.5 -189q-38 -181 -57 -302q-24 4 -42 4q-19 0 -43 -4q30 111 65 271q-7 21 -42 107q-61 154 -130 307q30 -4 51 -4q16 0 42 4q29 -91 90 -250zM332 721h-30l138 135q32 32 47 32
q13 0 23 -9t10 -23q0 -13 -7.5 -21t-29.5 -21z" />
    <glyph glyph-name="Thorn" unicode="&#xde;" 
d="M196 681q24 -4 43 -4q20 0 46 4q-23 -86 -28 -114q66 4 100 4q80 0 124 -26q60 -35 60 -111q0 -55 -30.5 -109t-88.5 -87q-62 -35 -197 -35q-20 0 -48 2q-34 -181 -38 -209q-24 4 -44 4q-19 0 -45 -4q37 142 80.5 345.5t65.5 339.5zM185 239q26 -4 56 -4q93 0 147 39
q38 28 57.5 71.5t19.5 83.5q0 29 -10.5 50.5t-24 32t-36 16.5t-37.5 7t-36 1q-30 0 -70 -5q-37 -144 -66 -292z" />
    <glyph glyph-name="germandbls" unicode="&#xdf;" 
d="M225 66l5 2q38 -46 101 -46q52 0 85 40t33 81q0 27 -14.5 51.5t-28.5 37t-36 28.5q-44 32 -63 52.5t-19 44.5q0 27 14.5 47.5t72.5 79.5q25 26 40 44.5t28 46.5t13 57q0 38 -25.5 61t-64.5 23q-32 0 -57 -14.5t-40 -32.5t-28.5 -53t-19 -55.5t-15.5 -61.5
q-15 -65 -54 -254t-46 -249q-20 4 -38 4q-16 0 -40 -4q27 98 70 309q37 182 52.5 239t41.5 98q33 52 83 77t104 25q57 0 94.5 -26t37.5 -72q0 -34 -17 -63t-52 -68q-62 -68 -74.5 -85.5t-12.5 -38.5q0 -22 16 -38t58 -46q28 -21 41.5 -32t28.5 -36t15 -53q0 -78 -71.5 -140
t-152.5 -62q-42 0 -90 25q15 19 25 57z" />
    <glyph glyph-name="agrave" unicode="&#xe0;" horiz-adv-x="500" 
d="M113 372l14 54q78 53 162 53q61 0 99.5 -31t38.5 -80q0 -27 -12 -78l-29 -122q-14 -59 -14 -89q0 -19 10 -32t29 -13q14 0 27 9l5 -21q-38 -26 -74 -26q-61 0 -66 67q-74 -78 -156 -78q-48 0 -85.5 29.5t-37.5 79.5q0 30 10.5 55t33 42t40.5 28.5t50.5 20l44 11.5t38.5 8
q73 14 80 17q32 14 32 74q0 42 -28.5 65t-71.5 23q-65 0 -128 -66h-12zM97 106q0 -35 23 -55.5t55 -20.5q77 0 131 79q15 85 30 139q-15 -3 -45 -8.5t-45 -9.5q-29 -7 -51.5 -15t-47 -22t-37.5 -36t-13 -51zM378 538h-28l-123 95q-33 25 -33 43q0 14 9 23t24 9
q13 0 21.5 -7.5t27.5 -31.5z" />
    <glyph glyph-name="aacute" unicode="&#xe1;" horiz-adv-x="500" 
d="M113 372l14 54q78 53 162 53q61 0 99.5 -31t38.5 -80q0 -27 -12 -78l-29 -122q-14 -59 -14 -89q0 -19 10 -32t29 -13q14 0 27 9l5 -21q-38 -26 -74 -26q-61 0 -66 67q-74 -78 -156 -78q-48 0 -85.5 29.5t-37.5 79.5q0 30 10.5 55t33 42t40.5 28.5t50.5 20l44 11.5t38.5 8
q73 14 80 17q32 14 32 74q0 42 -28.5 65t-71.5 23q-65 0 -128 -66h-12zM97 106q0 -35 23 -55.5t55 -20.5q77 0 131 79q15 85 30 139q-15 -3 -45 -8.5t-45 -9.5q-29 -7 -51.5 -15t-47 -22t-37.5 -36t-13 -51zM249 538h-30l138 135q32 32 47 32q13 0 23 -9t10 -23
q0 -13 -7.5 -21t-29.5 -21z" />
    <glyph glyph-name="acircumflex" unicode="&#xe2;" horiz-adv-x="500" 
d="M113 372l14 54q78 53 162 53q61 0 99.5 -31t38.5 -80q0 -27 -12 -78l-29 -122q-14 -59 -14 -89q0 -19 10 -32t29 -13q14 0 27 9l5 -21q-38 -26 -74 -26q-61 0 -66 67q-74 -78 -156 -78q-48 0 -85.5 29.5t-37.5 79.5q0 30 10.5 55t33 42t40.5 28.5t50.5 20l44 11.5t38.5 8
q73 14 80 17q32 14 32 74q0 42 -28.5 65t-71.5 23q-65 0 -128 -66h-12zM97 106q0 -35 23 -55.5t55 -20.5q77 0 131 79q15 85 30 139q-15 -3 -45 -8.5t-45 -9.5q-29 -7 -51.5 -15t-47 -22t-37.5 -36t-13 -51zM299 705h40l88 -167h-32l-83 107l-137 -107h-35z" />
    <glyph glyph-name="atilde" unicode="&#xe3;" horiz-adv-x="500" 
d="M113 372l14 54q78 53 162 53q61 0 99.5 -31t38.5 -80q0 -27 -12 -78l-29 -122q-14 -59 -14 -89q0 -19 10 -32t29 -13q14 0 27 9l5 -21q-38 -26 -74 -26q-61 0 -66 67q-74 -78 -156 -78q-48 0 -85.5 29.5t-37.5 79.5q0 30 10.5 55t33 42t40.5 28.5t50.5 20l44 11.5t38.5 8
q73 14 80 17q32 14 32 74q0 42 -28.5 65t-71.5 23q-65 0 -128 -66h-12zM97 106q0 -35 23 -55.5t55 -20.5q77 0 131 79q15 85 30 139q-15 -3 -45 -8.5t-45 -9.5q-29 -7 -51.5 -15t-47 -22t-37.5 -36t-13 -51zM174 579h-26q12 46 32.5 74t60.5 28q30 0 84 -22t72 -22
q29 0 45 47h26q-8 -42 -31 -72.5t-61 -30.5q-28 0 -78 23q-54 22 -73 22q-20 0 -31 -12.5t-20 -34.5z" />
    <glyph glyph-name="adieresis" unicode="&#xe4;" horiz-adv-x="500" 
d="M113 372l14 54q78 53 162 53q61 0 99.5 -31t38.5 -80q0 -27 -12 -78l-29 -122q-14 -59 -14 -89q0 -19 10 -32t29 -13q14 0 27 9l5 -21q-38 -26 -74 -26q-61 0 -66 67q-74 -78 -156 -78q-48 0 -85.5 29.5t-37.5 79.5q0 30 10.5 55t33 42t40.5 28.5t50.5 20l44 11.5t38.5 8
q73 14 80 17q32 14 32 74q0 42 -28.5 65t-71.5 23q-65 0 -128 -66h-12zM97 106q0 -35 23 -55.5t55 -20.5q77 0 131 79q15 85 30 139q-15 -3 -45 -8.5t-45 -9.5q-29 -7 -51.5 -15t-47 -22t-37.5 -36t-13 -51zM162 610q0 18 13.5 32t32.5 14q20 0 33.5 -13.5t13.5 -32.5
q0 -20 -13.5 -33.5t-33.5 -13.5q-19 0 -32.5 14t-13.5 33zM359 610q0 18 13.5 32t32.5 14q20 0 33.5 -13.5t13.5 -32.5q0 -20 -14 -33.5t-33 -13.5t-32.5 14t-13.5 33z" />
    <glyph glyph-name="aring" unicode="&#xe5;" horiz-adv-x="500" 
d="M113 372l14 54q78 53 162 53q61 0 99.5 -31t38.5 -80q0 -27 -12 -78l-29 -122q-14 -59 -14 -89q0 -19 10 -32t29 -13q14 0 27 9l5 -21q-38 -26 -74 -26q-61 0 -66 67q-74 -78 -156 -78q-48 0 -85.5 29.5t-37.5 79.5q0 30 10.5 55t33 42t40.5 28.5t50.5 20l44 11.5t38.5 8
q73 14 80 17q32 14 32 74q0 42 -28.5 65t-71.5 23q-65 0 -128 -66h-12zM97 106q0 -35 23 -55.5t55 -20.5q77 0 131 79q15 85 30 139q-15 -3 -45 -8.5t-45 -9.5q-29 -7 -51.5 -15t-47 -22t-37.5 -36t-13 -51zM204 637q0 42 30.5 72.5t73.5 30.5q42 0 72.5 -30t30.5 -73
t-30 -73.5t-73 -30.5t-73.5 30.5t-30.5 73.5zM238 637q0 -29 20.5 -49.5t49.5 -20.5t49 20.5t20 49.5t-20.5 49t-48.5 20q-29 0 -49.5 -20t-20.5 -49z" />
    <glyph glyph-name="ae" unicode="&#xe6;" horiz-adv-x="778" 
d="M749 314q0 -34 -11 -81q-92 5 -221 5q-59 0 -121 -2q-5 -33 -5 -58q0 -46 14 -78.5t38 -48t46.5 -22t46.5 -6.5q77 0 149 53h3l-13 -45q-74 -44 -164 -44q-131 0 -182 113q-37 -56 -81.5 -86t-108.5 -29q-51 0 -85.5 28.5t-34.5 75.5q0 25 7.5 46t16.5 35t28 27
t30.5 19.5t35 14t31 9.5t28.5 7q11 3 47 10t59 13t37 15q7 44 7 63q0 35 -24.5 62t-74.5 27q-70 0 -129 -67h-11q8 21 14 55q77 54 158 54q84 0 125 -69q81 68 166 68q79 0 129 -39.5t50 -124.5zM331 247q-5 -1 -56 -12.5t-61 -14.5q-122 -34 -122 -116q0 -35 23 -54.5
t59 -19.5q121 0 157 217zM570 449q-22 0 -45 -8t-47 -26t-44 -54t-31 -85q55 -4 136 -4q96 0 133 4q6 24 6 54q0 62 -31.5 90.5t-76.5 28.5z" />
    <glyph glyph-name="ccedilla" unicode="&#xe7;" horiz-adv-x="500" 
d="M421 63l-14 -42q-72 -35 -155 -35l-32 -51q12 2 22 2q35 0 58 -18.5t23 -49.5q0 -39 -34 -61.5t-84 -22.5q-43 0 -92 20l18 28q33 -14 66 -14q26 0 41.5 12.5t15.5 31.5q0 15 -11.5 27.5t-37.5 12.5q-18 0 -34 -6l-6 7l54 84q-82 10 -132.5 62t-50.5 143q0 50 17 98.5
t51 91.5t93.5 69.5t134.5 26.5q77 0 152 -30q-15 -31 -25 -72h-6q-18 33 -52.5 51.5t-74.5 18.5q-91 0 -150.5 -77t-59.5 -177q0 -51 16 -87.5t42 -53.5t50.5 -24t49.5 -7q62 0 142 44z" />
    <glyph glyph-name="egrave" unicode="&#xe8;" horiz-adv-x="500" 
d="M408 76l-13 -45q-74 -44 -163 -44q-35 0 -68 10.5t-63.5 32.5t-49 64t-18.5 99q0 120 72 202.5t185 82.5q79 0 129 -39.5t50 -124.5q0 -34 -11 -81q-93 5 -221 5q-59 0 -121 -2q-5 -32 -5 -58q0 -46 14 -78.5t38 -48t46.5 -22t46.5 -6.5q77 0 149 53h3zM290 449
q-22 0 -45 -8t-47 -26t-44 -54t-31 -85q55 -4 136 -4q96 0 133 4q6 24 6 54q0 62 -31.5 90.5t-76.5 28.5zM383 538h-28l-123 95q-33 25 -33 43q0 14 9 23t24 9q13 0 21.5 -7.5t27.5 -31.5z" />
    <glyph glyph-name="eacute" unicode="&#xe9;" horiz-adv-x="500" 
d="M408 76l-13 -45q-74 -44 -163 -44q-35 0 -68 10.5t-63.5 32.5t-49 64t-18.5 99q0 120 72 202.5t185 82.5q79 0 129 -39.5t50 -124.5q0 -34 -11 -81q-93 5 -221 5q-59 0 -121 -2q-5 -32 -5 -58q0 -46 14 -78.5t38 -48t46.5 -22t46.5 -6.5q77 0 149 53h3zM290 449
q-22 0 -45 -8t-47 -26t-44 -54t-31 -85q55 -4 136 -4q96 0 133 4q6 24 6 54q0 62 -31.5 90.5t-76.5 28.5zM269 538h-30l138 135q32 32 47 32q13 0 23 -9t10 -23q0 -13 -7.5 -21t-29.5 -21z" />
    <glyph glyph-name="ecircumflex" unicode="&#xea;" horiz-adv-x="500" 
d="M408 76l-13 -45q-74 -44 -163 -44q-35 0 -68 10.5t-63.5 32.5t-49 64t-18.5 99q0 120 72 202.5t185 82.5q79 0 129 -39.5t50 -124.5q0 -34 -11 -81q-93 5 -221 5q-59 0 -121 -2q-5 -32 -5 -58q0 -46 14 -78.5t38 -48t46.5 -22t46.5 -6.5q77 0 149 53h3zM290 449
q-22 0 -45 -8t-47 -26t-44 -54t-31 -85q55 -4 136 -4q96 0 133 4q6 24 6 54q0 62 -31.5 90.5t-76.5 28.5zM319 705h40l88 -167h-32l-83 107l-137 -107h-35z" />
    <glyph glyph-name="edieresis" unicode="&#xeb;" horiz-adv-x="500" 
d="M408 76l-13 -45q-74 -44 -163 -44q-35 0 -68 10.5t-63.5 32.5t-49 64t-18.5 99q0 120 72 202.5t185 82.5q79 0 129 -39.5t50 -124.5q0 -34 -11 -81q-93 5 -221 5q-59 0 -121 -2q-5 -32 -5 -58q0 -46 14 -78.5t38 -48t46.5 -22t46.5 -6.5q77 0 149 53h3zM290 449
q-22 0 -45 -8t-47 -26t-44 -54t-31 -85q55 -4 136 -4q96 0 133 4q6 24 6 54q0 62 -31.5 90.5t-76.5 28.5zM162 610q0 18 13.5 32t32.5 14q20 0 33.5 -13.5t13.5 -32.5q0 -20 -13.5 -33.5t-33.5 -13.5q-19 0 -32.5 14t-13.5 33zM359 610q0 18 13.5 32t32.5 14
q20 0 33.5 -13.5t13.5 -32.5q0 -20 -14 -33.5t-33 -13.5t-32.5 14t-13.5 33z" />
    <glyph glyph-name="igrave" unicode="&#xec;" horiz-adv-x="241" 
d="M212 470q-19 -67 -55.5 -231t-45.5 -243q-30 4 -46 4q-19 0 -39 -4q29 92 62.5 258.5t40.5 215.5q30 -4 42 -4q17 0 41 4zM253 538h-28l-123 95q-33 25 -33 43q0 14 9 23t24 9q13 0 21.5 -7.5t27.5 -31.5z" />
    <glyph glyph-name="iacute" unicode="&#xed;" horiz-adv-x="241" 
d="M212 470q-19 -67 -55.5 -231t-45.5 -243q-30 4 -46 4q-19 0 -39 -4q29 92 62.5 258.5t40.5 215.5q30 -4 42 -4q17 0 41 4zM159 538h-30l138 135q32 32 47 32q13 0 23 -9t10 -23q0 -13 -7.5 -21t-29.5 -21z" />
    <glyph glyph-name="icircumflex" unicode="&#xee;" horiz-adv-x="241" 
d="M212 470q-19 -67 -55.5 -231t-45.5 -243q-30 4 -46 4q-19 0 -39 -4q29 92 62.5 258.5t40.5 215.5q30 -4 42 -4q17 0 41 4zM189 705h40l88 -167h-32l-83 107l-137 -107h-35z" />
    <glyph glyph-name="idieresis" unicode="&#xef;" horiz-adv-x="241" 
d="M212 470q-19 -67 -55.5 -231t-45.5 -243q-30 4 -46 4q-19 0 -39 -4q29 92 62.5 258.5t40.5 215.5q30 -4 42 -4q17 0 41 4zM32 610q0 18 13.5 32t32.5 14q20 0 33.5 -13.5t13.5 -32.5q0 -20 -13.5 -33.5t-33.5 -13.5q-19 0 -32.5 14t-13.5 33zM229 610q0 18 13.5 32
t32.5 14q20 0 33.5 -13.5t13.5 -32.5q0 -20 -14 -33.5t-33 -13.5t-32.5 14t-13.5 33z" />
    <glyph glyph-name="eth" unicode="&#xf0;" 
d="M32 187q0 114 77.5 203t201.5 89q50 0 85 -17q-43 73 -107 140q-71 -21 -141 -46q-3 19 -14 35q62 16 132 38q-62 64 -105 96q31 5 60 19q59 -42 111 -91q97 30 138 48q5 -19 14 -35q-43 -10 -127 -39q82 -85 125 -164t42 -179q0 -116 -79.5 -207t-203.5 -91
q-59 0 -102 19t-65 50t-32 64t-10 68zM111 163q0 -67 31 -106t96 -39q53 0 95.5 30t65.5 75.5t34.5 92t11.5 86.5q0 64 -35 104.5t-98 40.5q-51 0 -92 -28.5t-63.5 -72.5t-34 -91t-11.5 -92z" />
    <glyph glyph-name="ntilde" unicode="&#xf1;" 
d="M203 470l-19 -74l4 -2q25 32 69 56.5t96 24.5q57 0 98.5 -31.5t41.5 -88.5q0 -27 -23 -126q-38 -164 -45 -233q-22 4 -38 4q-20 0 -44 -4q16 49 45.5 173.5t29.5 169.5q0 42 -29 65.5t-70 23.5q-15 0 -33 -4.5t-40 -14.5t-41.5 -33t-30.5 -55q-15 -44 -38.5 -161.5
t-30.5 -163.5q-20 4 -37 4q-18 0 -40 -4q19 63 54.5 233t46.5 241q20 -4 36 -4q14 0 38 4zM212 579h-26q12 46 32.5 74t60.5 28q30 0 84 -22t72 -22q29 0 45 47h26q-8 -42 -31 -72.5t-61 -30.5q-28 0 -78 23q-54 22 -73 22q-20 0 -31 -12.5t-20 -34.5z" />
    <glyph glyph-name="ograve" unicode="&#xf2;" 
d="M32 187q0 114 77.5 203t201.5 89q110 0 161.5 -55.5t51.5 -139.5q0 -116 -79.5 -207t-203.5 -91q-59 0 -102 19t-65 50t-32 64t-10 68zM111 163q0 -67 31 -106t96 -39q53 0 95.5 30t65.5 75.5t34.5 92t11.5 86.5q0 64 -35 104.5t-98 40.5q-51 0 -92 -28.5t-63.5 -72.5
t-34 -91t-11.5 -92zM411 538h-28l-123 95q-33 25 -33 43q0 14 9 23t24 9q13 0 21.5 -7.5t27.5 -31.5z" />
    <glyph glyph-name="oacute" unicode="&#xf3;" 
d="M32 187q0 114 77.5 203t201.5 89q110 0 161.5 -55.5t51.5 -139.5q0 -116 -79.5 -207t-203.5 -91q-59 0 -102 19t-65 50t-32 64t-10 68zM111 163q0 -67 31 -106t96 -39q53 0 95.5 30t65.5 75.5t34.5 92t11.5 86.5q0 64 -35 104.5t-98 40.5q-51 0 -92 -28.5t-63.5 -72.5
t-34 -91t-11.5 -92zM317 538h-30l138 135q32 32 47 32q13 0 23 -9t10 -23q0 -13 -7.5 -21t-29.5 -21z" />
    <glyph glyph-name="ocircumflex" unicode="&#xf4;" 
d="M32 187q0 114 77.5 203t201.5 89q110 0 161.5 -55.5t51.5 -139.5q0 -116 -79.5 -207t-203.5 -91q-59 0 -102 19t-65 50t-32 64t-10 68zM111 163q0 -67 31 -106t96 -39q53 0 95.5 30t65.5 75.5t34.5 92t11.5 86.5q0 64 -35 104.5t-98 40.5q-51 0 -92 -28.5t-63.5 -72.5
t-34 -91t-11.5 -92zM347 705h40l88 -167h-32l-83 107l-137 -107h-35z" />
    <glyph glyph-name="otilde" unicode="&#xf5;" 
d="M32 187q0 114 77.5 203t201.5 89q110 0 161.5 -55.5t51.5 -139.5q0 -116 -79.5 -207t-203.5 -91q-59 0 -102 19t-65 50t-32 64t-10 68zM111 163q0 -67 31 -106t96 -39q53 0 95.5 30t65.5 75.5t34.5 92t11.5 86.5q0 64 -35 104.5t-98 40.5q-51 0 -92 -28.5t-63.5 -72.5
t-34 -91t-11.5 -92zM212 579h-26q12 46 32.5 74t60.5 28q30 0 84 -22t72 -22q29 0 45 47h26q-8 -42 -31 -72.5t-61 -30.5q-28 0 -78 23q-54 22 -73 22q-20 0 -31 -12.5t-20 -34.5z" />
    <glyph glyph-name="odieresis" unicode="&#xf6;" 
d="M32 187q0 114 77.5 203t201.5 89q110 0 161.5 -55.5t51.5 -139.5q0 -116 -79.5 -207t-203.5 -91q-59 0 -102 19t-65 50t-32 64t-10 68zM111 163q0 -67 31 -106t96 -39q53 0 95.5 30t65.5 75.5t34.5 92t11.5 86.5q0 64 -35 104.5t-98 40.5q-51 0 -92 -28.5t-63.5 -72.5
t-34 -91t-11.5 -92zM200 610q0 18 13.5 32t32.5 14q20 0 33.5 -13.5t13.5 -32.5q0 -20 -13.5 -33.5t-33.5 -13.5q-19 0 -32.5 14t-13.5 33zM397 610q0 18 13.5 32t32.5 14q20 0 33.5 -13.5t13.5 -32.5q0 -20 -14 -33.5t-33 -13.5t-32.5 14t-13.5 33z" />
    <glyph glyph-name="divide" unicode="&#xf7;" horiz-adv-x="593" 
d="M48 217v48h498v-48h-498zM297 111q19 0 33 -13.5t14 -33.5t-14 -33.5t-33 -13.5t-33 13.5t-14 33.5q0 19 14 33t33 14zM297 465q19 0 33 -13.5t14 -33.5t-14 -33.5t-33 -13.5t-33 14t-14 33q0 20 14 33.5t33 13.5z" />
    <glyph glyph-name="oslash" unicode="&#xf8;" 
d="M517 520l24 -21l-69 -74q52 -55 52 -143q0 -72 -33 -138.5t-99.5 -112t-151.5 -45.5q-82 0 -135 38l-71 -76l-22 20l71 77q-51 54 -51 143q0 111 77 201t203 90q82 0 136 -35zM429 379l-290 -317q32 -44 99 -44q54 0 96.5 30.5t65 76.5t34 91.5t11.5 85.5q0 42 -16 77z
M123 91l288 314q-36 42 -99 42q-53 0 -94.5 -30t-63.5 -75.5t-32.5 -90.5t-10.5 -84q0 -43 12 -76z" />
    <glyph glyph-name="ugrave" unicode="&#xf9;" 
d="M352 -4l18 68l-4 4q-70 -83 -170 -83q-54 0 -97 31.5t-43 83.5q0 18 31 158q28 121 39 212q24 -4 44 -4q17 0 43 4q-78 -289 -78 -341q0 -46 25.5 -71t71.5 -25q55 0 94 33.5t55 82.5q25 75 66 321q28 -4 40 -4q17 0 41 4q-19 -63 -55.5 -228t-45.5 -246q-24 4 -36 4
q-17 0 -39 -4zM411 538h-28l-123 95q-33 25 -33 43q0 14 9 23t24 9q13 0 21.5 -7.5t27.5 -31.5z" />
    <glyph glyph-name="uacute" unicode="&#xfa;" 
d="M352 -4l18 68l-4 4q-70 -83 -170 -83q-54 0 -97 31.5t-43 83.5q0 18 31 158q28 121 39 212q24 -4 44 -4q17 0 43 4q-78 -289 -78 -341q0 -46 25.5 -71t71.5 -25q55 0 94 33.5t55 82.5q25 75 66 321q28 -4 40 -4q17 0 41 4q-19 -63 -55.5 -228t-45.5 -246q-24 4 -36 4
q-17 0 -39 -4zM307 538h-30l138 135q32 32 47 32q13 0 23 -9t10 -23q0 -13 -7.5 -21t-29.5 -21z" />
    <glyph glyph-name="ucircumflex" unicode="&#xfb;" 
d="M352 -4l18 68l-4 4q-70 -83 -170 -83q-54 0 -97 31.5t-43 83.5q0 18 31 158q28 121 39 212q24 -4 44 -4q17 0 43 4q-78 -289 -78 -341q0 -46 25.5 -71t71.5 -25q55 0 94 33.5t55 82.5q25 75 66 321q28 -4 40 -4q17 0 41 4q-19 -63 -55.5 -228t-45.5 -246q-24 4 -36 4
q-17 0 -39 -4zM347 705h40l88 -167h-32l-83 107l-137 -107h-35z" />
    <glyph glyph-name="udieresis" unicode="&#xfc;" 
d="M352 -4l18 68l-4 4q-70 -83 -170 -83q-54 0 -97 31.5t-43 83.5q0 18 31 158q28 121 39 212q24 -4 44 -4q17 0 43 4q-78 -289 -78 -341q0 -46 25.5 -71t71.5 -25q55 0 94 33.5t55 82.5q25 75 66 321q28 -4 40 -4q17 0 41 4q-19 -63 -55.5 -228t-45.5 -246q-24 4 -36 4
q-17 0 -39 -4zM200 610q0 18 13.5 32t32.5 14q20 0 33.5 -13.5t13.5 -32.5q0 -20 -13.5 -33.5t-33.5 -13.5q-19 0 -32.5 14t-13.5 33zM397 610q0 18 13.5 32t32.5 14q20 0 33.5 -13.5t13.5 -32.5q0 -20 -14 -33.5t-33 -13.5t-32.5 14t-13.5 33z" />
    <glyph glyph-name="yacute" unicode="&#xfd;" horiz-adv-x="500" 
d="M239 89h5l83 146q93 169 111 211l10 24q20 -4 35 -4q14 0 32 4q-289 -457 -425 -734q-16 4 -32 4q-15 0 -31 -4l164 263q-41 169 -121 471q24 -4 42 -4q17 0 39 4q26 -149 88 -381zM289 538h-30l138 135q32 32 47 32q13 0 23 -9t10 -23q0 -13 -7.5 -21t-29.5 -21z" />
    <glyph glyph-name="thorn" unicode="&#xfe;" horiz-adv-x="574" 
d="M126 87h-3l-68 -351q-18 4 -34 4t-42 -4q35 149 115 534.5t94 473.5q24 -4 41 -4q16 0 40 4q-33 -134 -78 -351l2 -2q75 88 171 88q20 0 40.5 -3.5t45.5 -15.5t43.5 -31t31 -53.5t12.5 -79.5q0 -76 -31 -146.5t-93 -117.5t-139 -47q-53 0 -94 24.5t-54 77.5zM143 156
q0 -73 37 -103.5t82 -30.5q51 0 91 30.5t61.5 75.5t32.5 89t11 80q0 72 -36 105.5t-85 33.5q-45 0 -81 -24.5t-56.5 -59.5t-34 -76.5t-18 -71t-4.5 -48.5z" />
    <glyph glyph-name="ydieresis" unicode="&#xff;" horiz-adv-x="500" 
d="M239 89h5l83 146q93 169 111 211l10 24q20 -4 35 -4q14 0 32 4q-289 -457 -425 -734q-16 4 -32 4q-15 0 -31 -4l164 263q-41 169 -121 471q24 -4 42 -4q17 0 39 4q26 -149 88 -381zM162 610q0 18 13.5 32t32.5 14q20 0 33.5 -13.5t13.5 -32.5q0 -20 -13.5 -33.5
t-33.5 -13.5q-19 0 -32.5 14t-13.5 33zM359 610q0 18 13.5 32t32.5 14q20 0 33.5 -13.5t13.5 -32.5q0 -20 -14 -33.5t-33 -13.5t-32.5 14t-13.5 33z" />
    <glyph glyph-name="dotlessi" unicode="&#x131;" horiz-adv-x="241" 
d="M212 470q-19 -67 -55.5 -231t-45.5 -243q-30 4 -46 4q-19 0 -39 -4q29 92 62.5 258.5t40.5 215.5q30 -4 42 -4q17 0 41 4z" />
    <glyph glyph-name="Lslash" unicode="&#x141;" horiz-adv-x="444" 
d="M207 352q-15 -73 -61 -313q176 2 263 15q-8 -27 -8 -58q-60 4 -174 4q-69 0 -177 -4q32 117 76 324l-81 -47q-7 16 -21 38l111 52q45 215 61 318q24 -4 43 -4q21 0 45 4q-35 -135 -68 -288q64 30 107 57q8 -21 17 -36z" />
    <glyph glyph-name="lslash" unicode="&#x142;" horiz-adv-x="241" 
d="M33 316l-11 37q73 31 98 44q52 262 64 347q22 -4 38 -4q18 0 46 4q-32 -126 -74 -321l38.5 20.5t41.5 22.5l10 -40l-99 -44q-59 -274 -77 -386q-20 4 -41 4q-18 0 -40 -4q33 120 84 360q-21 -9 -78 -40z" />
    <glyph glyph-name="OE" unicode="&#x152;" horiz-adv-x="944" 
d="M663 557l22 124q70 -4 147 -4q76 0 138 4q-10 -29 -9 -55q-68 12 -208 12q-7 -27 -60 -260h99q47 0 116 6q-10 -29 -9 -51q-56 6 -141 6h-73q-34 -161 -59 -301q152 0 248 12q-7 -27 -6 -54q-136 4 -188 4q-33 0 -81.5 -2t-54.5 -2l26 102q-49 -56 -103.5 -87t-144.5 -31
q-132 0 -203 76t-71 209q0 112 45.5 208t138 157.5t214.5 61.5q90 0 137 -35.5t80 -99.5zM132 251q0 -65 17.5 -113.5t47 -74t62 -37.5t68.5 -12q69 0 128.5 41t96.5 104t58 134t21 135q0 110 -52 171t-139 61q-91 0 -162 -57.5t-108.5 -150t-37.5 -201.5z" />
    <glyph glyph-name="oe" unicode="&#x153;" horiz-adv-x="889" 
d="M30 183q0 51 17.5 101t50.5 95t90 72.5t129 27.5q61 0 102 -20.5t74 -67.5q84 87 187 87q79 0 129 -39.5t50 -124.5q0 -34 -11 -81q-93 5 -221 5q-59 0 -121 -2q-5 -33 -5 -58q0 -46 14 -78.5t38 -48t46.5 -22t46.5 -6.5q77 0 149 53h3l-13 -45q-74 -44 -162 -44
q-61 0 -101.5 22.5t-73.5 72.5q-93 -96 -212 -96q-94 0 -150 52.5t-56 144.5zM109 163q0 -67 31 -106t96 -39q53 0 95.5 30t65.5 75.5t34.5 92t11.5 86.5q0 64 -35 104.5t-98 40.5q-51 0 -92 -28.5t-63.5 -72.5t-34 -91t-11.5 -92zM680 449q-22 0 -45 -8t-47 -26t-44 -54
t-31 -85q55 -4 136 -4q96 0 133 4q6 24 6 54q0 62 -31.5 90.5t-76.5 28.5z" />
    <glyph glyph-name="Scaron" unicode="&#x160;" horiz-adv-x="500" 
d="M465 584h-7q-12 33 -42 52t-70 19q-62 0 -103 -42.5t-41 -100.5q0 -26 7 -45t25 -36t32.5 -26.5t45.5 -27.5t45.5 -28t34.5 -29t28 -43.5t8 -56.5q0 -88 -75 -163t-199 -75q-85 0 -143 37q22 42 33 77h7q20 -38 61 -55.5t79 -17.5q73 0 117 52t44 111q0 26 -7 45.5
t-25.5 37t-30.5 26t-42 27.5q-31 19 -45.5 30t-35.5 31t-29.5 45t-8.5 57q0 87 68.5 146t174.5 59q68 0 128 -30q-20 -33 -34 -76zM224 889h33l92 -106l143 106h34l-165 -167h-38z" />
    <glyph glyph-name="scaron" unicode="&#x161;" horiz-adv-x="389" 
d="M327 390h-9q-7 27 -30 43t-52 16q-42 0 -68.5 -29t-26.5 -66q0 -33 21 -51t65 -37q21 -10 32.5 -16.5t27.5 -19t23 -30t7 -40.5q0 -70 -60 -122.5t-146 -52.5q-60 0 -108 29q14 23 32 67h7q11 -29 38 -44.5t61 -15.5q52 0 80.5 32.5t28.5 70.5q0 16 -4.5 27.5t-16.5 21
t-23 15.5t-36 18q-29 13 -44.5 23t-31 34.5t-15.5 57.5q0 27 10 54t30.5 51.5t57.5 40t85 15.5q45 0 91 -20q-20 -44 -26 -72zM128 706h33l92 -106l143 106h34l-165 -167h-38z" />
    <glyph glyph-name="Ydieresis" unicode="&#x178;" 
d="M302 332h4q9 11 49.5 65.5l99 139.5t93.5 144q16 -4 31 -4q14 0 37 4l-145.5 -194t-141.5 -189q-38 -181 -57 -302q-24 4 -42 4q-19 0 -43 -4q30 111 65 271q-7 21 -42 107q-61 154 -130 307q30 -4 51 -4q16 0 42 4q29 -91 90 -250zM225 793q0 18 13.5 32t32.5 14
q20 0 33.5 -13.5t13.5 -32.5t-14 -33t-33 -14t-32.5 14t-13.5 33zM422 793q0 18 13.5 32t32.5 14q20 0 33.5 -13.5t13.5 -32.5t-13.5 -33t-33.5 -14q-19 0 -32.5 14t-13.5 33z" />
    <glyph glyph-name="Zcaron" unicode="&#x17d;" horiz-adv-x="611" 
d="M7 -4v15q49 52 255.5 310.5t242.5 310.5l-4 6q-206 0 -371 -11q8 23 12 54q152 -4 228 -4q166 0 253 4l-2 -21q-21 -24 -229 -282l-265 -333l6 -6q38 0 112 2q212 6 293 14q-9 -26 -9 -59q-83 4 -274 4q-92 0 -248 -4zM264 889h33l92 -106l143 106h34l-165 -167h-38z" />
    <glyph glyph-name="zcaron" unicode="&#x17e;" horiz-adv-x="500" 
d="M10 -4v10q35 38 184 211t175 208l-2 7q-154 0 -268 -12q6 22 7 50q80 -4 208 -4q94 0 168 4l-1 -14q-57 -61 -190.5 -218.5t-167.5 -201.5l1 -4q199 0 298 11q-4 -17 -8 -47q-49 4 -133 4q-163 0 -271 -4zM184 706h33l92 -106l143 106h34l-165 -167h-38z" />
    <glyph glyph-name="florin" unicode="&#x192;" 
d="M487 579h-5q-34 24 -58 24q-42 0 -58 -47q-9 -27 -36 -164q35 0 107 2q-5 -15 -10 -40q-26 2 -105 2q-31 -143 -55.5 -237.5t-43.5 -143.5t-28.5 -66.5t-24.5 -38.5q-20 -28 -59 -50t-94 -19q10 36 18 75l5 2q27 -15 47 -15q19 0 33 7.5t22.5 23.5t12.5 28t9 35
q8 33 85 399q-89 -3 -106 -4q8 24 10 41q76 -1 104 -1q19 83 51 147q29 58 76 92.5t97 34.5q7 0 25 -3q-10 -28 -19 -84z" />
    <glyph glyph-name="circumflex" unicode="&#x2c6;" horiz-adv-x="241" 
d="M189 705h40l88 -167h-32l-83 107l-137 -107h-35z" />
    <glyph glyph-name="caron" unicode="&#x2c7;" horiz-adv-x="241" 
d="M54 706h33l92 -106l143 106h34l-165 -167h-38z" />
    <glyph glyph-name="uni02C9" unicode="&#x2c9;" horiz-adv-x="241" 
d="M58 634h296l-10 -48h-297z" />
    <glyph glyph-name="breve" unicode="&#x2d8;" horiz-adv-x="241" 
d="M72 693h26q10 -101 111 -101q59 0 97 43q21 23 36 58h27q-43 -159 -166 -159q-68 0 -102 43t-29 116z" />
    <glyph glyph-name="dotaccent" unicode="&#x2d9;" horiz-adv-x="241" 
d="M134 610q0 20 14 34t34 14t34 -14t14 -34t-14 -34t-34 -14t-34 14t-14 34z" />
    <glyph glyph-name="ring" unicode="&#x2da;" horiz-adv-x="241" 
d="M74 637q0 42 30.5 72.5t73.5 30.5q42 0 72.5 -30t30.5 -73t-30 -73.5t-73 -30.5t-73.5 30.5t-30.5 73.5zM108 637q0 -29 20.5 -49.5t49.5 -20.5t49 20.5t20 49.5t-20.5 49t-48.5 20q-29 0 -49.5 -20t-20.5 -49z" />
    <glyph glyph-name="ogonek" unicode="&#x2db;" horiz-adv-x="333" 
d="M203 -154l9 -27q-47 -27 -91 -27q-35 0 -60 16.5t-25 49.5q0 13 6.5 26.5t19.5 26t25 22.5t31.5 21.5l30.5 18t30 16t22 11.5h38q-130 -87 -130 -129q0 -18 14 -28.5t33 -10.5q16 0 47 14z" />
    <glyph glyph-name="tilde" unicode="&#x2dc;" horiz-adv-x="241" 
d="M54 579h-26q12 46 32.5 74t60.5 28q30 0 84 -22t72 -22q29 0 45 47h26q-8 -42 -31 -72.5t-61 -30.5q-28 0 -78 23q-54 22 -73 22q-20 0 -31 -12.5t-20 -34.5z" />
    <glyph glyph-name="hungarumlaut" unicode="&#x2dd;" horiz-adv-x="241" 
d="M120 538h-30l109 134q26 33 47 33q13 0 22 -9.5t9 -21.5t-6.5 -19.5t-28.5 -24.5zM238 538h-30l120 134q30 33 47 33q13 0 22.5 -9.5t9.5 -22.5q0 -12 -6 -19t-30 -24z" />
    <glyph glyph-name="uni03A9" unicode="&#x3a9;" horiz-adv-x="727" 
d="M667 127l-51 -127h-228l-2 17q4 5 40 46.5t53.5 64.5t46.5 64.5t46 83t26 83.5q14 78 9 132t-29.5 87.5t-57 48.5t-73.5 15q-93 0 -167 -71t-105 -218q-5 -23 -7.5 -45.5t-1 -45t3 -40t8 -40.5l10 -36t13 -36l13 -31.5t14.5 -32.5t13 -28l-12 -18h-225l5 127l20 1
q5 -47 17 -61.5t42 -14.5h110q-14 15 -23 26t-23.5 31t-23.5 37.5t-19 42.5t-14 50t-3.5 56.5t7.5 63.5q29 139 130 224t225 85q126 0 188 -80.5t33 -218.5q-10 -49 -35 -96t-61 -88.5t-66.5 -70.5t-70.5 -62h112q33 0 48.5 13t42.5 63z" />
    <glyph glyph-name="uni03BC" unicode="&#x3bc;" 
d="M352 -4l18 68l-4 4q-70 -83 -170 -83q-58 0 -87 35q-34 -168 -52 -284q-24 4 -37 4q-16 0 -42 -4q48 204 118 554q19 94 31 180q24 -4 43 -4q18 0 42 4q-77 -290 -77 -341q0 -46 25.5 -71t71.5 -25q55 0 94 33.5t55 82.5q16 48 39 170t26 151q30 -4 41 -4q17 0 41 4
q-19 -63 -55.5 -228t-45.5 -246q-24 4 -36 4q-17 0 -39 -4z" />
    <glyph glyph-name="pi" unicode="&#x3c0;" horiz-adv-x="549" 
d="M542 453l19 -9q-20 -44 -50 -74q-16 -4 -70 -4q-17 -58 -55 -241q-19 -89 26 -89q26 0 59 33l9 -17q-48 -63 -108 -63q-40 0 -54.5 26t-0.5 93q22 105 66 260q-61 2 -170 2l-5 -21q-21 -99 -52.5 -181.5t-52 -117t-32.5 -45.5q-40 -15 -57 -16l-2 14q61 57 104.5 162.5
t65.5 205.5q-32 0 -59 -7.5t-40 -15t-39 -25.5l-9 18q29 28 42 39t52 27.5t84 16.5q23 0 73.5 -1.5t98.5 -2t91 -0.5q23 0 36 6.5t30 26.5z" />
    <glyph glyph-name="uni2010" unicode="&#x2010;" horiz-adv-x="296" 
d="M49 302h219l-13 -59h-219z" />
    <glyph glyph-name="endash" unicode="&#x2013;" horiz-adv-x="500" 
d="M6 292h500l-12 -49h-500z" />
    <glyph glyph-name="emdash" unicode="&#x2014;" horiz-adv-x="1000" 
d="M136 292h740l-12 -49h-740z" />
    <glyph glyph-name="quoteleft" unicode="&#x2018;" horiz-adv-x="278" 
d="M291 691l16 -10l-119 -201q-29 -48 -53 -48q-12 0 -21.5 8t-9.5 22q0 20 29 52z" />
    <glyph glyph-name="quoteright" unicode="&#x2019;" horiz-adv-x="278" 
d="M119 432l-16 10l119 201q29 48 53 48q12 0 21.5 -8t9.5 -22q0 -20 -29 -52z" />
    <glyph glyph-name="quotesinglbase" unicode="&#x201a;" horiz-adv-x="278" 
d="M-2 -146l-16 10l120 201q16 28 27.5 38t24.5 10q12 0 22 -8t10 -22q0 -18 -30 -52z" />
    <glyph glyph-name="quotedblleft" unicode="&#x201c;" horiz-adv-x="500" 
d="M487 691l16 -10l-119 -201q-29 -48 -53 -48q-12 0 -21.5 8t-9.5 22q0 20 29 52zM317 691l16 -10l-119 -201q-29 -48 -53 -48q-12 0 -21.5 8t-9.5 22q0 20 29 52z" />
    <glyph glyph-name="quotedblright" unicode="&#x201d;" horiz-adv-x="500" 
d="M144 433l-16 10l119 201q29 48 53 48q12 0 21.5 -8t9.5 -22q0 -20 -29 -52zM314 433l-16 10l119 201q29 48 53 48q12 0 21.5 -8t9.5 -22q0 -20 -29 -52z" />
    <glyph glyph-name="quotedblbase" unicode="&#x201e;" horiz-adv-x="500" 
d="M30 -147l-16 10l113 202q15 28 26 38t24 10t23 -9t10 -23q0 -15 -21 -40zM200 -147l-16 10l112 202q16 28 27 38t24 10t22.5 -9t9.5 -23q0 -15 -20 -40z" />
    <glyph glyph-name="dagger" unicode="&#x2020;" 
d="M327 684q26 -4 41 -4q20 0 48 4q-27 -74 -62 -231q127 0 186 9q-18 -35 -18 -71q-56 9 -179 9l-23.5 -124t-19.5 -102q-16 -83 -25 -178q-24 4 -43 4t-47 -4q66 244 95 404q-114 0 -181 -9q15 35 15 71q78 -9 177 -9q21 97 36 231z" />
    <glyph glyph-name="daggerdbl" unicode="&#x2021;" 
d="M63 237q86 -10 180 -10q6 30 23 102l23 99q-125 0 -188 -8q19 38 16 70q86 -10 182 -10q26 146 32 204q26 -4 49 -4q22 0 42 4q-32 -88 -60 -204q127 0 186 8q-21 -29 -19 -74q-78 14 -177 14q-21 -87 -45 -201q126 0 184 8q-19 -37 -18 -72q-101 12 -177 12
q-23 -129 -26 -179q-26 4 -44 4q-19 0 -45 -4q13 41 49 179q-104 0 -185 -9q18 31 18 71z" />
    <glyph glyph-name="bullet" unicode="&#x2022;" horiz-adv-x="500" 
d="M269 511q71 0 121 -49.5t50 -121.5q0 -71 -50 -121t-121 -50t-121 50t-50 121q0 72 50 121.5t121 49.5z" />
    <glyph glyph-name="ellipsis" unicode="&#x2026;" horiz-adv-x="1000" 
d="M138 -13q-22 0 -37 15.5t-15 36.5t15 36.5t37 15.5t37 -15t15 -37t-15.5 -37t-36.5 -15zM471 -13q-22 0 -37 15.5t-15 36.5t15 36.5t37 15.5t37 -15t15 -37t-15.5 -37t-36.5 -15zM804 -13q-22 0 -37 15.5t-15 36.5t15 36.5t37 15.5t37 -15t15 -37t-15.5 -37t-36.5 -15z
" />
    <glyph glyph-name="perthousand" unicode="&#x2030;" horiz-adv-x="1000" 
d="M75 471q0 76 49.5 130.5t119.5 54.5q50 0 80.5 -33t30.5 -85q0 -67 -46.5 -127t-120.5 -60q-52 0 -82.5 33t-30.5 87zM138 443q0 -71 51 -71q28 0 50 25.5t32.5 61.5t15.5 65.5t5 47.5q0 63 -51 63q-32 0 -57 -35t-35.5 -77.5t-10.5 -79.5zM345 111q0 76 49.5 130.5
t119.5 54.5q50 0 80.5 -33t30.5 -85q0 -67 -46.5 -127t-120.5 -60q-52 0 -82.5 33t-30.5 87zM408 83q0 -71 51 -71q28 0 50 25.5t32.5 61.5t15.5 65.5t5 47.5q0 63 -51 63q-32 0 -57 -35t-35.5 -77.5t-10.5 -79.5zM675 111q0 76 49.5 130.5t119.5 54.5q50 0 80.5 -33
t30.5 -85q0 -67 -46.5 -127t-120.5 -60q-52 0 -82.5 33t-30.5 87zM738 83q0 -71 51 -71q28 0 50 25.5t32.5 61.5t15.5 65.5t5 47.5q0 63 -51 63q-32 0 -57 -35t-35.5 -77.5t-10.5 -79.5zM612 685l-477 -723h-47l477 723h47z" />
    <glyph glyph-name="guilsinglleft" unicode="&#x2039;" horiz-adv-x="278" 
d="M102 244l71 -178q-23 -2 -43 -16l-73 201l141 171q19 -16 37 -24z" />
    <glyph glyph-name="guilsinglright" unicode="&#x203a;" horiz-adv-x="278" 
d="M167 228l-71 179q25 3 43 15l73 -200l-141 -172q-15 14 -37 25z" />
    <glyph glyph-name="fraction" unicode="&#x2044;" horiz-adv-x="148" 
d="M331 685l-438 -723h-44l438 723h44z" />
    <glyph glyph-name="Euro" unicode="&#x20ac;" 
d="M584 631q-19 -47 -26 -74h-13q-43 75 -125 75q-71 0 -131.5 -53.5t-88.5 -171.5h216q34 0 69 4q-17 -24 -20 -51q-33 4 -58 4h-215q-3 -22 -7 -63h192q34 0 69 4q-17 -24 -20 -51q-33 4 -58 4h-186v-29q0 -87 46 -146t112 -59q85 0 154 82h14q-13 -34 -20 -76
q-74 -45 -155 -45q-115 0 -173 76.5t-59 196.5h-12q-20 0 -68 -4q9 20 13 51q33 -4 57 -4h11q1 23 7 63q-18 0 -64 -4q9 20 13 51q33 -4 57 -4h3q31 121 111 193t197 72q37 0 82.5 -11.5t75.5 -29.5z" />
    <glyph glyph-name="afii61289" unicode="&#x2113;" horiz-adv-x="387" 
d="M321 99l13 -15q-76 -100 -175 -100q-60 0 -84 37q-25 39 -4 138l18 83l-71 -47l-7 20l84 59l26 119q27 127 47 178.5t60 85.5q40 39 82 39q39 0 52.5 -36t2.5 -88q-29 -140 -206 -288l-19 -91q-15 -64 -9.5 -101t21.5 -50.5t45 -13.5q62 0 124 71zM195 453l-27 -131
q127 122 154 248q10 41 3 70t-30 29q-29 0 -52 -50t-48 -166z" />
    <glyph glyph-name="trademark" unicode="&#x2122;" horiz-adv-x="1019" 
d="M492 689h15q89 -178 149 -276q8 13 74 131l83 145h12q0 -3 9 -84l19.5 -169t15.5 -114q-15 3 -30 3q-16 0 -28 -3q0 70 -25 259q-109 -191 -134 -253h-11q-41 89 -132 248q-24 -153 -25 -254q-12 3 -24 3q-11 0 -23 -3q17 82 25 151q4 36 15 108t15 108zM321 651
q-2 -98 -2 -147q0 -120 4 -182q-14 3 -30 3q-15 0 -29 -3q4 57 4 183q0 94 -2 146q-48 0 -116 -7q4 9 4 19q0 7 -4 23q43 -4 153 -4q87 0 133 4q-4 -8 -4 -22q0 -5 4 -21q-45 8 -115 8z" />
    <glyph glyph-name="Omega" unicode="&#x2126;" horiz-adv-x="727" 
d="M667 127l-51 -127h-228l-2 17q4 5 40 46.5t53.5 64.5t46.5 64.5t46 83t26 83.5q14 78 9 132t-29.5 87.5t-57 48.5t-73.5 15q-93 0 -167 -71t-105 -218q-5 -23 -7.5 -45.5t-1 -45t3 -40t8 -40.5l10 -36t13 -36l13 -31.5t14.5 -32.5t13 -28l-12 -18h-225l5 127l20 1
q5 -47 17 -61.5t42 -14.5h110q-14 15 -23 26t-23.5 31t-23.5 37.5t-19 42.5t-14 50t-3.5 56.5t7.5 63.5q29 139 130 224t225 85q126 0 188 -80.5t33 -218.5q-10 -49 -35 -96t-61 -88.5t-66.5 -70.5t-70.5 -62h112q33 0 48.5 13t42.5 63z" />
    <glyph glyph-name="estimated" unicode="&#x212e;" horiz-adv-x="910" 
d="M878 313h-614q-5 0 -5 -4v-185q0 -11 8 -21q98 -101 232 -101q147 0 245 113h54q-52 -61 -131 -96.5t-169 -35.5q-156 0 -267 99.5t-111 239.5q0 142 111 241.5t267 99.5q158 0 269 -99.5t111 -241.5v-9zM738 338v186q0 13 -9 22q-97 97 -230 97t-231 -100q-9 -9 -9 -23
v-182q0 -6 5 -6h470q4 0 4 6z" />
    <glyph glyph-name="partialdiff" unicode="&#x2202;" horiz-adv-x="515" 
d="M290 409h1q39 0 74.5 -19.5t51.5 -55.5q14 45 28 99q19 86 5 156q-8 40 -39.5 72.5t-76.5 32.5q-69 0 -144 -53q-12 -2 -18 16t3 33q73 42 146 42q125 0 168 -135q29 -89 0 -220q-31 -147 -98 -246q-100 -147 -226 -147q-81 0 -118 53t-18 142q19 91 90 158
q34 32 80.5 52t90.5 20zM301 374h-1q-72 0 -130 -57q-57 -61 -80 -167q-12 -58 9 -98.5t70 -40.5q76 0 145 101q47 66 89 184q-7 26 -35 52t-67 26z" />
    <glyph glyph-name="uni2206" unicode="&#x2206;" horiz-adv-x="618" 
d="M530 0h-547l4 19l391 639l32 10l124 -649zM456 38l-99 533l-321 -533h420z" />
    <glyph glyph-name="product" unicode="&#x220f;" horiz-adv-x="748" 
d="M721 659v-22q-63 -4 -76 -12.5t-13 -42.5v-576q0 -41 13.5 -52t72.5 -15v-22h-236v22q61 4 73.5 13.5t12.5 53.5v595q0 20 -6 25t-28 5h-234q-21 0 -26.5 -4.5t-5.5 -21.5v-599q0 -42 11 -52t68 -15v-22h-229v22q59 5 72.5 15t13.5 52v576q0 34 -13 42.5t-76 12.5v22h606
z" />
    <glyph glyph-name="summation" unicode="&#x2211;" horiz-adv-x="627" 
d="M604 85l-41 -169h-447v19l224 343l-219 361v20h442q1 -20 12 -150l-23 -5q-12 71 -31 100q-10 16 -29 22t-72 6h-214l193 -315l-222 -344h269q65 0 85.5 17.5t49.5 101.5z" />
    <glyph glyph-name="minus" unicode="&#x2212;" horiz-adv-x="593" 
d="M48 217v48h497v-48h-497z" />
    <glyph glyph-name="uni2215" unicode="&#x2215;" horiz-adv-x="148" 
d="M331 685l-438 -723h-44l438 723h44z" />
    <glyph glyph-name="uni2219" unicode="&#x2219;" horiz-adv-x="278" 
d="M98 294q0 21 15 36.5t37 15.5t37 -15t15 -37t-15.5 -37t-36.5 -15q-22 0 -37 15.5t-15 36.5z" />
    <glyph glyph-name="radical" unicode="&#x221a;" horiz-adv-x="621" 
d="M603 853l-158 -985l-17 -11l-216 531l-85 -43l-10 28l139 68l177 -444h2l135 865z" />
    <glyph glyph-name="infinity" unicode="&#x221e;" horiz-adv-x="769" 
d="M721 274v-1q0 -67 -42.5 -108.5t-100.5 -41.5q-43 0 -82 26.5t-92 87.5q-31 -36 -52.5 -56.5t-56 -39t-70.5 -18.5q-58 0 -99.5 42.5t-41.5 103.5q0 64 42 106.5t105 42.5q49 0 89 -29.5t87 -83.5q58 63 85 83q44 30 93 30q61 0 98.5 -40t37.5 -104zM231 166h1
q15 0 30 5.5t26 11.5t26.5 19.5t22.5 20.5t22.5 24t19.5 21l-34 40.5t-31.5 31.5t-43.5 29t-45 8q-43 0 -69 -32t-26 -77q0 -43 28 -72.5t73 -29.5zM580 377h-1q-18 0 -36 -7t-35.5 -21t-28.5 -24.5t-28 -29t-21 -23.5q53 -59 84 -82.5t67 -23.5q43 0 69 31.5t26 72.5
q0 49 -27 78t-69 29z" />
    <glyph glyph-name="integral" unicode="&#x222b;" horiz-adv-x="437" 
d="M245 26l-18 396q-5 114 3 193t28.5 120.5t45.5 58.5t59 17q18 0 34.5 -10t16.5 -29q0 -16 -10 -25t-25 -9t-26.5 18.5t-21.5 18.5q-7 0 -14 -4t-14 -16t-12 -30t-7 -48.5t0 -70.5l17 -375q5 -102 -0.5 -178t-17.5 -120.5t-32 -72t-40 -36.5t-45 -9q-23 0 -38 12t-15 29
q-1 15 11.5 26t29.5 11q12 0 24 -20t22 -20q24 0 36.5 48t8.5 125z" />
    <glyph glyph-name="approxequal" unicode="&#x2248;" horiz-adv-x="569" 
d="M497 405l28 -26q-45 -88 -122 -88q-19 0 -38 5.5t-31 11.5l-43 22q-55 32 -89 32q-30 0 -51.5 -18t-44.5 -52l-29 25q48 89 131 89q16 0 33.5 -5t26.5 -9t26.5 -14t20.5 -11q5 -3 15.5 -8.5l15.5 -8l13.5 -6.5t14.5 -5.5t14 -3t17 -1.5q28 0 49 17t43 54zM497 245l28 -25
q-47 -89 -122 -89q-19 0 -38 5.5t-32.5 12t-41.5 22.5q-58 32 -89 32t-52.5 -18.5t-43.5 -52.5l-29 25q47 89 131 89q16 0 34 -4.5t26 -8.5l27 -14t20 -11q3 -2 12.5 -7t13 -7t11.5 -6t13 -5.5l12 -3.5t14 -3t14 -1q28 0 49 17t43 53z" />
    <glyph glyph-name="notequal" unicode="&#x2260;" horiz-adv-x="587" 
d="M432 474l-44 -93h151v-44h-169l-65 -139h234v-44h-252l-52 -112l-36 16l44 96h-143v44h163l63 139h-226v44h245l51 110z" />
    <glyph glyph-name="lessequal" unicode="&#x2264;" horiz-adv-x="603" 
d="M552 91l-431 213v47l431 212v-53l-382 -181v-2l382 -183v-53zM555 7h-439v46h439v-46z" />
    <glyph glyph-name="greaterequal" unicode="&#x2265;" horiz-adv-x="603" 
d="M122 563l431 -212v-47l-431 -213v53l381 183v2l-381 181v53zM554 7h-438v46h438v-46z" />
    <glyph glyph-name="lozenge" unicode="&#x25ca;" horiz-adv-x="629" 
d="M582 318l-198 -386h-50l-197 386l198 388h49zM530 318l-168 337h-4l-170 -336l171 -338h2z" />
    <glyph glyph-name="fi" unicode="&#xfb01;" horiz-adv-x="518" 
d="M489 470q-19 -67 -55.5 -231t-45.5 -243q-30 4 -46 4q-19 0 -39 -4q29 92 62.5 258.5t40.5 215.5q30 -4 42 -4q17 0 41 4zM434 628q0 20 14 34t34 14t34 -14t14 -34t-14 -34t-34 -14t-34 14t-14 34zM58 422l6 41q48 -4 72 -4q18 92 46 154q25 55 68.5 92.5t98.5 37.5
q21 0 41 -8q-14 -32 -20 -70l-9 -4q-36 17 -65 17q-81 0 -85 -109q-2 -69 -6 -110q39 0 87 4l-8 -41q-9 0 -39 2t-46 2l-69 -327q-12 -57 -17 -103q-22 4 -38 4q-18 0 -40 -4q54 203 95 430q-48 0 -72 -4z" />
    <glyph glyph-name="fl" unicode="&#xfb02;" horiz-adv-x="518" 
d="M545 744q-16 -56 -79.5 -345.5t-80.5 -402.5q-20 4 -41 4q-18 0 -40 -4q45 168 92 396.5t65 351.5q22 -4 38 -4q18 0 46 4zM58 422l6 41q48 -4 72 -4q18 92 46 154q25 55 68.5 92.5t98.5 37.5q21 0 41 -8q-14 -32 -20 -70l-9 -4q-36 17 -65 17q-81 0 -85 -109
q-2 -69 -6 -110q39 0 87 4l-8 -41q-9 0 -39 2t-46 2l-69 -327q-12 -57 -17 -103q-22 4 -38 4q-18 0 -40 -4q54 203 95 430q-48 0 -72 -4z" />
    <glyph glyph-name="a.superior" horiz-adv-x="330" 
d="M124 624l11 39q50 32 105 32q41 0 65.5 -19.5t24.5 -49.5q0 -16 -7 -47l-18 -70q-9 -36 -9 -51q0 -22 19 -22q8 0 20 7l6 -21q-29 -17 -52 -17q-34 0 -44 35q-48 -41 -93 -41q-35 0 -58 20t-23 48t15 48t42.5 30.5t48 15.5t50.5 9q21 3 29 5.5t13.5 11.5t5.5 28
q0 23 -16.5 35t-40.5 12q-40 0 -78 -38h-16zM262 550q-2 -1 -15.5 -3t-28 -5t-23.5 -6q-70 -20 -70 -62q0 -20 13 -30t32 -10q45 0 77 44q7 45 15 72z" />
    <glyph glyph-name="o.superior" horiz-adv-x="365" 
d="M79 521q0 68 49 121t127 53q68 0 102.5 -32.5t34.5 -86.5q0 -68 -50.5 -122.5t-129.5 -54.5q-60 0 -96.5 32t-36.5 90zM137 506q0 -79 74 -79q61 0 92 53.5t31 107.5q0 36 -20.5 57.5t-56.5 21.5q-40 0 -68.5 -28t-40 -63t-11.5 -70z" />
    <glyph glyph-name="one.superior" horiz-adv-x="363" 
d="M236 612l-67 -28l-19 19v9q81 22 144 60l12 -8q-49 -178 -89 -400q-27 3 -30 3q-4 0 -34 -3q13 45 42.5 168t40.5 180z" />
    <glyph glyph-name="two.superior" horiz-adv-x="363" 
d="M46 264l1 20q109 90 170 155q69 73 69 134q0 28 -16 45t-44 17q-25 0 -46 -14t-31 -40h-9q-8 20 -19 29q39 52 117 52q54 0 82 -24.5t28 -61.5q0 -64 -85 -140q-111 -98 -141 -127q122 0 192 4q-12 -27 -11 -49q-25 0 -74 1.5t-74 1.5q-64 0 -109 -3z" />
    <glyph glyph-name="three.superior" horiz-adv-x="363" 
d="M149 588l-13 32q46 42 104 42q50 0 76.5 -22.5t26.5 -54.5q0 -67 -89 -108q75 -16 75 -77q0 -54 -49.5 -98.5t-136.5 -44.5q-52 0 -97 22q11 17 16 40h8q35 -35 84 -35t81.5 34t32.5 79q0 27 -16.5 44t-45.5 17q-20 0 -47 -10l10 36q36 -2 61 9t36 28.5t15.5 31.5t4.5 26
q0 26 -14.5 41t-40.5 15q-48 0 -74 -47h-8z" />
    </font>
</defs>
</svg>
